<svg width="64" height="64" viewBox="0 0 64 64" fill="none" xmlns="http://www.w3.org/2000/svg">
<circle cx="32" cy="32" r="32" fill="#630D9C"/>
<path d="M15.6367 48.8C15.6367 48.1667 16.5534 45.8167 18.3867 41.75C20.2201 37.65 22.3367 32.9667 24.7367 27.7C27.1701 22.4 28.8201 18.6167 29.6867 16.35L30.7867 13.5C30.2534 12.7 29.6701 11.9833 29.0367 11.35C30.0701 10.95 31.0534 10.75 31.9867 10.75C34.0867 10.75 35.7201 12.0833 36.8867 14.75C37.6201 16.45 38.6034 20.25 39.8367 26.15C39.8701 26.2167 39.9201 26.4333 39.9867 26.8C40.0534 27.1667 40.3867 28.8667 40.9867 31.9C41.6201 34.9 42.0534 36.9 42.2867 37.9C42.5201 38.8667 42.9201 40.3667 43.4867 42.4C44.3867 45.8333 45.5201 48.5 46.8867 50.4C45.3201 51.3333 44.0201 51.8 42.9867 51.8C41.9867 51.8 41.2534 51.5 40.7867 50.9C40.3534 50.2667 39.9367 49.3167 39.5367 48.05C39.1701 46.75 38.3701 43.1667 37.1367 37.3C36.4034 38.4333 34.9367 39.0333 32.7367 39.1L23.8367 39.45C21.9367 44.5833 20.5534 48.9833 19.6867 52.65C16.9867 51.5167 15.6367 50.2333 15.6367 48.8ZM32.5367 17.95C28.7034 27.05 26.2534 32.9667 25.1867 35.7H36.7867C35.2201 28.0667 33.8034 22.15 32.5367 17.95Z" fill="white"/>
</svg>
