<svg  viewBox="0 0 373 143" fill="none" xmlns="http://www.w3.org/2000/svg">
<g id="BLOG HEADER">
<path id="THE" d="M175.986 9.525H174.961C174.911 8.80833 174.794 8.20833 174.611 7.725C174.428 7.24167 174.161 6.86667 173.811 6.6C173.478 6.31667 173.053 6.11667 172.536 6C172.019 5.88333 171.403 5.825 170.686 5.825C170.069 5.825 169.569 5.84167 169.186 5.875C168.819 5.89167 168.536 5.93333 168.336 6C168.136 6.06667 168.003 6.15 167.936 6.25C167.886 6.33333 167.861 6.45 167.861 6.6V19.975C167.861 20.5083 167.894 20.9667 167.961 21.35C168.044 21.7333 168.194 22.05 168.411 22.3C168.644 22.5333 168.969 22.7167 169.386 22.85C169.819 22.9667 170.386 23.0333 171.086 23.05V24H161.636V23.05C162.336 23.0333 162.903 22.9667 163.336 22.85C163.769 22.7167 164.094 22.5333 164.311 22.3C164.544 22.05 164.694 21.7333 164.761 21.35C164.844 20.9667 164.886 20.5083 164.886 19.975V6.6C164.886 6.45 164.853 6.33333 164.786 6.25C164.736 6.15 164.619 6.06667 164.436 6C164.269 5.93333 164.028 5.89167 163.711 5.875C163.394 5.84167 162.969 5.825 162.436 5.825C161.786 5.825 161.178 5.85 160.611 5.9C160.061 5.95 159.578 6.1 159.161 6.35C158.761 6.58333 158.436 6.95 158.186 7.45C157.936 7.95 157.803 8.64167 157.786 9.525H156.861V4.75H175.736L175.986 9.525ZM195.654 20.025C195.654 20.6583 195.688 21.175 195.754 21.575C195.821 21.9583 195.946 22.2583 196.129 22.475C196.329 22.675 196.604 22.8167 196.954 22.9C197.321 22.9833 197.796 23.0333 198.379 23.05V24H190.279V23.05C190.863 23.0333 191.329 22.9833 191.679 22.9C192.046 22.8167 192.329 22.675 192.529 22.475C192.729 22.275 192.863 21.9917 192.929 21.625C192.996 21.2583 193.029 20.7833 193.029 20.2V14.775H182.904V20.025C182.904 20.6583 182.938 21.175 183.004 21.575C183.071 21.9583 183.196 22.2583 183.379 22.475C183.579 22.675 183.854 22.8167 184.204 22.9C184.571 22.9833 185.046 23.0333 185.629 23.05V24H177.529V23.05C178.113 23.0333 178.579 22.9833 178.929 22.9C179.296 22.8167 179.579 22.675 179.779 22.475C179.979 22.275 180.113 21.9917 180.179 21.625C180.246 21.2583 180.279 20.7833 180.279 20.2V8.55C180.279 7.96667 180.246 7.5 180.179 7.15C180.129 6.78333 180.013 6.5 179.829 6.3C179.663 6.08333 179.413 5.94167 179.079 5.875C178.746 5.79167 178.313 5.73333 177.779 5.7V4.75H185.379V5.7C184.846 5.71667 184.413 5.76667 184.079 5.85C183.763 5.93333 183.513 6.08333 183.329 6.3C183.163 6.51667 183.046 6.81667 182.979 7.2C182.929 7.58333 182.904 8.09167 182.904 8.725V13.525H193.029V8.55C193.029 7.96667 192.996 7.5 192.929 7.15C192.879 6.78333 192.763 6.5 192.579 6.3C192.413 6.08333 192.163 5.94167 191.829 5.875C191.496 5.79167 191.063 5.73333 190.529 5.7V4.75H198.129V5.7C197.596 5.71667 197.163 5.76667 196.829 5.85C196.513 5.93333 196.263 6.08333 196.079 6.3C195.913 6.51667 195.796 6.81667 195.729 7.2C195.679 7.58333 195.654 8.09167 195.654 8.725V20.025ZM206.024 13.425C206.924 13.425 207.674 13.375 208.274 13.275C208.891 13.1583 209.374 12.9833 209.724 12.75C210.091 12.5167 210.349 12.2167 210.499 11.85C210.666 11.4833 210.749 11.05 210.749 10.55H211.624V17.375H210.749C210.749 16.875 210.674 16.4417 210.524 16.075C210.391 15.7083 210.141 15.4083 209.774 15.175C209.424 14.925 208.941 14.7417 208.324 14.625C207.724 14.4917 206.958 14.425 206.024 14.425V20.075C206.024 20.625 206.091 21.0833 206.224 21.45C206.358 21.8 206.583 22.0917 206.899 22.325C207.233 22.5417 207.666 22.7 208.199 22.8C208.733 22.8833 209.391 22.925 210.174 22.925C211.058 22.925 211.808 22.8667 212.424 22.75C213.041 22.6167 213.558 22.4 213.974 22.1C214.391 21.8 214.724 21.4083 214.974 20.925C215.224 20.425 215.433 19.8083 215.599 19.075H216.549L216.174 24H200.649V23.05C201.233 23.0333 201.699 22.9833 202.049 22.9C202.416 22.8167 202.699 22.675 202.899 22.475C203.099 22.275 203.233 21.9917 203.299 21.625C203.366 21.2583 203.399 20.7833 203.399 20.2V8.55C203.399 7.96667 203.366 7.5 203.299 7.15C203.249 6.78333 203.133 6.5 202.949 6.3C202.783 6.08333 202.533 5.94167 202.199 5.875C201.866 5.79167 201.433 5.73333 200.899 5.7V4.75H215.349L215.574 9.15H214.699C214.599 8.48333 214.433 7.94167 214.199 7.525C213.983 7.09167 213.674 6.75 213.274 6.5C212.891 6.25 212.399 6.075 211.799 5.975C211.199 5.875 210.474 5.825 209.624 5.825H206.449C206.166 5.825 206.024 5.96667 206.024 6.25V13.425Z" fill="white"/>
<path id="INFLUENCER" d="M99.8965 131.275C99.8965 132.108 99.9298 132.767 99.9965 133.25C100.063 133.733 100.188 134.108 100.371 134.375C100.571 134.642 100.846 134.817 101.196 134.9C101.563 134.983 102.038 135.033 102.621 135.05V136H94.5215V135.05C95.1048 135.033 95.5715 134.983 95.9215 134.9C96.2882 134.8 96.5715 134.625 96.7715 134.375C96.9715 134.125 97.1048 133.775 97.1715 133.325C97.2382 132.858 97.2715 132.233 97.2715 131.45V121.3C97.2715 120.6 97.2382 120.025 97.1715 119.575C97.1215 119.108 97.0048 118.742 96.8215 118.475C96.6548 118.208 96.4048 118.025 96.0715 117.925C95.7382 117.808 95.3048 117.733 94.7715 117.7V116.75H102.371V117.7C101.838 117.717 101.405 117.783 101.071 117.9C100.755 118.017 100.505 118.217 100.321 118.5C100.155 118.767 100.038 119.142 99.9715 119.625C99.9215 120.108 99.8965 120.725 99.8965 121.475V131.275ZM121.122 136.25L109.247 120.6H109.147V131.275C109.147 132.108 109.172 132.767 109.222 133.25C109.289 133.733 109.406 134.108 109.572 134.375C109.756 134.642 110.006 134.817 110.322 134.9C110.656 134.983 111.089 135.033 111.622 135.05V136H104.897V135.05C105.481 135.033 105.947 134.983 106.297 134.9C106.664 134.8 106.947 134.625 107.147 134.375C107.347 134.125 107.481 133.775 107.547 133.325C107.614 132.858 107.647 132.233 107.647 131.45V121.3C107.647 120.6 107.614 120.025 107.547 119.575C107.497 119.108 107.381 118.742 107.197 118.475C107.031 118.208 106.781 118.025 106.447 117.925C106.114 117.808 105.681 117.733 105.147 117.7V116.75H110.097L121.022 131.325H121.122V121.475C121.122 120.658 121.089 120.008 121.022 119.525C120.972 119.025 120.856 118.642 120.672 118.375C120.506 118.108 120.256 117.933 119.922 117.85C119.606 117.767 119.181 117.717 118.647 117.7V116.75H125.372V117.7C124.789 117.717 124.314 117.775 123.947 117.875C123.597 117.958 123.322 118.125 123.122 118.375C122.922 118.625 122.789 118.983 122.722 119.45C122.656 119.917 122.622 120.533 122.622 121.3V136.25H121.122ZM132.831 132.025C132.831 132.658 132.864 133.175 132.931 133.575C133.014 133.958 133.181 134.258 133.431 134.475C133.681 134.675 134.031 134.817 134.481 134.9C134.948 134.983 135.556 135.033 136.306 135.05V136H127.456V135.05C128.039 135.033 128.506 134.983 128.856 134.9C129.223 134.817 129.506 134.675 129.706 134.475C129.906 134.275 130.039 133.992 130.106 133.625C130.173 133.258 130.206 132.783 130.206 132.2V120.55C130.206 119.967 130.173 119.5 130.106 119.15C130.056 118.783 129.939 118.5 129.756 118.3C129.589 118.083 129.339 117.942 129.006 117.875C128.673 117.792 128.239 117.733 127.706 117.7V116.75H142.156L142.431 121.525H141.556C141.456 120.808 141.298 120.225 141.081 119.775C140.864 119.308 140.556 118.942 140.156 118.675C139.773 118.408 139.281 118.225 138.681 118.125C138.081 118.008 137.331 117.95 136.431 117.95H133.256C132.973 117.95 132.831 118.092 132.831 118.375V125.925C133.631 125.925 134.314 125.883 134.881 125.8C135.464 125.7 135.939 125.533 136.306 125.3C136.689 125.067 136.981 124.75 137.181 124.35C137.381 123.95 137.506 123.433 137.556 122.8H138.431V130.125H137.556C137.473 129.492 137.339 128.967 137.156 128.55C136.973 128.133 136.698 127.808 136.331 127.575C135.981 127.342 135.523 127.175 134.956 127.075C134.389 126.975 133.681 126.925 132.831 126.925V132.025ZM160.354 136H144.204V135.05C144.787 135.033 145.254 134.983 145.604 134.9C145.971 134.817 146.254 134.675 146.454 134.475C146.654 134.275 146.787 133.992 146.854 133.625C146.921 133.258 146.954 132.783 146.954 132.2V120.55C146.954 119.967 146.921 119.5 146.854 119.15C146.804 118.783 146.687 118.5 146.504 118.3C146.337 118.083 146.087 117.942 145.754 117.875C145.421 117.792 144.987 117.733 144.454 117.7V116.75H152.054V117.7C151.521 117.717 151.087 117.767 150.754 117.85C150.437 117.933 150.187 118.083 150.004 118.3C149.837 118.517 149.721 118.817 149.654 119.2C149.604 119.583 149.579 120.092 149.579 120.725V131.5C149.579 132.2 149.646 132.775 149.779 133.225C149.929 133.658 150.171 134 150.504 134.25C150.854 134.483 151.312 134.65 151.879 134.75C152.446 134.833 153.162 134.875 154.029 134.875C154.979 134.875 155.779 134.825 156.429 134.725C157.079 134.608 157.621 134.417 158.054 134.15C158.504 133.867 158.854 133.483 159.104 133C159.371 132.5 159.596 131.858 159.779 131.075H160.729L160.354 136ZM178.829 128.25C178.829 129.567 178.696 130.725 178.429 131.725C178.179 132.725 177.763 133.558 177.179 134.225C176.613 134.892 175.871 135.4 174.954 135.75C174.038 136.083 172.929 136.25 171.629 136.25C170.396 136.25 169.321 136.133 168.404 135.9C167.488 135.65 166.721 135.25 166.104 134.7C165.488 134.133 165.029 133.4 164.729 132.5C164.429 131.6 164.279 130.492 164.279 129.175V122.575C164.279 121.342 164.246 120.392 164.179 119.725C164.129 119.058 163.963 118.567 163.679 118.25C163.479 118.033 163.204 117.892 162.854 117.825C162.521 117.742 162.071 117.7 161.504 117.7V116.75H170.029V117.7C169.463 117.7 169.004 117.733 168.654 117.8C168.304 117.867 168.029 118.033 167.829 118.3C167.596 118.6 167.446 119.083 167.379 119.75C167.313 120.4 167.279 121.342 167.279 122.575V129.375C167.279 130.225 167.363 130.983 167.529 131.65C167.713 132.3 168.004 132.858 168.404 133.325C168.804 133.775 169.321 134.117 169.954 134.35C170.604 134.583 171.396 134.7 172.329 134.7C173.996 134.7 175.246 134.242 176.079 133.325C176.913 132.392 177.329 131.025 177.329 129.225V123.2C177.329 121.717 177.271 120.592 177.154 119.825C177.038 119.058 176.821 118.517 176.504 118.2C176.271 117.983 175.979 117.85 175.629 117.8C175.279 117.733 174.846 117.7 174.329 117.7V116.75H181.579V117.7C181.046 117.7 180.604 117.742 180.254 117.825C179.921 117.908 179.654 118.092 179.454 118.375C179.204 118.725 179.038 119.275 178.954 120.025C178.871 120.758 178.829 121.817 178.829 123.2V128.25ZM188.813 125.425C189.713 125.425 190.463 125.375 191.063 125.275C191.679 125.158 192.163 124.983 192.513 124.75C192.879 124.517 193.138 124.217 193.288 123.85C193.454 123.483 193.538 123.05 193.538 122.55H194.413V129.375H193.538C193.538 128.875 193.463 128.442 193.313 128.075C193.179 127.708 192.929 127.408 192.563 127.175C192.213 126.925 191.729 126.742 191.113 126.625C190.513 126.492 189.746 126.425 188.813 126.425V132.075C188.813 132.625 188.879 133.083 189.013 133.45C189.146 133.8 189.371 134.092 189.688 134.325C190.021 134.542 190.454 134.7 190.988 134.8C191.521 134.883 192.179 134.925 192.963 134.925C193.846 134.925 194.596 134.867 195.213 134.75C195.829 134.617 196.346 134.4 196.763 134.1C197.179 133.8 197.513 133.408 197.763 132.925C198.013 132.425 198.221 131.808 198.388 131.075H199.338L198.963 136H183.438V135.05C184.021 135.033 184.488 134.983 184.838 134.9C185.204 134.817 185.488 134.675 185.688 134.475C185.888 134.275 186.021 133.992 186.088 133.625C186.154 133.258 186.188 132.783 186.188 132.2V120.55C186.188 119.967 186.154 119.5 186.088 119.15C186.038 118.783 185.921 118.5 185.738 118.3C185.571 118.083 185.321 117.942 184.988 117.875C184.654 117.792 184.221 117.733 183.688 117.7V116.75H198.138L198.363 121.15H197.488C197.388 120.483 197.221 119.942 196.988 119.525C196.771 119.092 196.463 118.75 196.063 118.5C195.679 118.25 195.188 118.075 194.588 117.975C193.988 117.875 193.263 117.825 192.413 117.825H189.238C188.954 117.825 188.813 117.967 188.813 118.25V125.425ZM217.802 136.25L205.927 120.6H205.827V131.275C205.827 132.108 205.852 132.767 205.902 133.25C205.969 133.733 206.085 134.108 206.252 134.375C206.435 134.642 206.685 134.817 207.002 134.9C207.335 134.983 207.769 135.033 208.302 135.05V136H201.577V135.05C202.16 135.033 202.627 134.983 202.977 134.9C203.344 134.8 203.627 134.625 203.827 134.375C204.027 134.125 204.16 133.775 204.227 133.325C204.294 132.858 204.327 132.233 204.327 131.45V121.3C204.327 120.6 204.294 120.025 204.227 119.575C204.177 119.108 204.06 118.742 203.877 118.475C203.71 118.208 203.46 118.025 203.127 117.925C202.794 117.808 202.36 117.733 201.827 117.7V116.75H206.777L217.702 131.325H217.802V121.475C217.802 120.658 217.769 120.008 217.702 119.525C217.652 119.025 217.535 118.642 217.352 118.375C217.185 118.108 216.935 117.933 216.602 117.85C216.285 117.767 215.86 117.717 215.327 117.7V116.75H222.052V117.7C221.469 117.717 220.994 117.775 220.627 117.875C220.277 117.958 220.002 118.125 219.802 118.375C219.602 118.625 219.469 118.983 219.402 119.45C219.335 119.917 219.302 120.533 219.302 121.3V136.25H217.802ZM239.943 116.75H240.643L240.868 122.5H239.943C239.576 121.033 238.868 119.883 237.818 119.05C236.768 118.217 235.501 117.8 234.018 117.8C233.001 117.8 232.093 118 231.293 118.4C230.493 118.8 229.818 119.375 229.268 120.125C228.718 120.875 228.293 121.792 227.993 122.875C227.709 123.958 227.568 125.183 227.568 126.55C227.568 129.233 228.126 131.3 229.243 132.75C230.359 134.183 231.976 134.9 234.093 134.9C237.309 134.9 239.376 133.192 240.293 129.775H241.318V136H240.443L239.868 134.025C238.118 135.508 236.001 136.25 233.518 136.25C232.101 136.25 230.818 136.025 229.668 135.575C228.534 135.125 227.559 134.492 226.743 133.675C225.943 132.842 225.318 131.833 224.868 130.65C224.434 129.467 224.218 128.15 224.218 126.7C224.218 125.183 224.451 123.8 224.918 122.55C225.384 121.3 226.034 120.225 226.868 119.325C227.718 118.425 228.726 117.733 229.893 117.25C231.076 116.75 232.376 116.5 233.793 116.5C234.793 116.5 235.734 116.642 236.618 116.925C237.501 117.208 238.459 117.667 239.493 118.3L239.943 116.75ZM249.262 125.425C250.162 125.425 250.912 125.375 251.512 125.275C252.128 125.158 252.612 124.983 252.962 124.75C253.328 124.517 253.587 124.217 253.737 123.85C253.903 123.483 253.987 123.05 253.987 122.55H254.862V129.375H253.987C253.987 128.875 253.912 128.442 253.762 128.075C253.628 127.708 253.378 127.408 253.012 127.175C252.662 126.925 252.178 126.742 251.562 126.625C250.962 126.492 250.195 126.425 249.262 126.425V132.075C249.262 132.625 249.328 133.083 249.462 133.45C249.595 133.8 249.82 134.092 250.137 134.325C250.47 134.542 250.903 134.7 251.437 134.8C251.97 134.883 252.628 134.925 253.412 134.925C254.295 134.925 255.045 134.867 255.662 134.75C256.278 134.617 256.795 134.4 257.212 134.1C257.628 133.8 257.962 133.408 258.212 132.925C258.462 132.425 258.67 131.808 258.837 131.075H259.787L259.412 136H243.887V135.05C244.47 135.033 244.937 134.983 245.287 134.9C245.653 134.817 245.937 134.675 246.137 134.475C246.337 134.275 246.47 133.992 246.537 133.625C246.603 133.258 246.637 132.783 246.637 132.2V120.55C246.637 119.967 246.603 119.5 246.537 119.15C246.487 118.783 246.37 118.5 246.187 118.3C246.02 118.083 245.77 117.942 245.437 117.875C245.103 117.792 244.67 117.733 244.137 117.7V116.75H258.587L258.812 121.15H257.937C257.837 120.483 257.67 119.942 257.437 119.525C257.22 119.092 256.912 118.75 256.512 118.5C256.128 118.25 255.637 118.075 255.037 117.975C254.437 117.875 253.712 117.825 252.862 117.825H249.687C249.403 117.825 249.262 117.967 249.262 118.25V125.425ZM277.351 121.575C277.351 122.908 276.951 124.017 276.151 124.9C275.351 125.783 274.076 126.375 272.326 126.675L277.851 133.325C278.301 133.875 278.793 134.275 279.326 134.525C279.876 134.758 280.526 134.933 281.276 135.05V136H276.451L270.326 128.15C270.11 127.867 269.901 127.642 269.701 127.475C269.518 127.308 269.318 127.183 269.101 127.1C268.901 127 268.66 126.942 268.376 126.925C268.11 126.892 267.785 126.875 267.401 126.875V132.075C267.401 132.692 267.435 133.2 267.501 133.6C267.585 133.983 267.743 134.283 267.976 134.5C268.226 134.717 268.576 134.867 269.026 134.95C269.493 135.017 270.101 135.05 270.851 135.05V136H262.026V135.05C262.61 135.033 263.076 134.983 263.426 134.9C263.793 134.817 264.076 134.675 264.276 134.475C264.476 134.275 264.61 133.992 264.676 133.625C264.743 133.258 264.776 132.783 264.776 132.2V120.55C264.776 119.967 264.743 119.5 264.676 119.15C264.626 118.783 264.51 118.5 264.326 118.3C264.16 118.083 263.91 117.942 263.576 117.875C263.243 117.792 262.81 117.733 262.276 117.7V116.75H270.126C272.426 116.75 274.201 117.175 275.451 118.025C276.718 118.875 277.351 120.058 277.351 121.575ZM267.401 125.625H269.176C270.843 125.625 272.076 125.325 272.876 124.725C273.693 124.108 274.101 123.1 274.101 121.7C274.101 120.35 273.776 119.383 273.126 118.8C272.493 118.217 271.493 117.925 270.126 117.925H267.826C267.543 117.925 267.401 118.067 267.401 118.35V125.625Z" fill="white"/>
<path id="CODING" d="M77.5335 44.72H79.3255L79.9015 59.44H77.5335C76.5948 55.6853 74.7815 52.7413 72.0935 50.608C69.4055 48.4747 66.1628 47.408 62.3655 47.408C59.7628 47.408 57.4375 47.92 55.3895 48.944C53.3415 49.968 51.6135 51.44 50.2055 53.36C48.7975 55.28 47.7095 57.6267 46.9415 60.4C46.2162 63.1733 45.8535 66.3093 45.8535 69.808C45.8535 76.6773 47.2828 81.968 50.1415 85.68C53.0002 89.3493 57.1388 91.184 62.5575 91.184C70.7922 91.184 76.0828 86.8107 78.4295 78.064H81.0535V94H78.8135L77.3415 88.944C72.8615 92.7413 67.4428 94.64 61.0855 94.64C57.4588 94.64 54.1735 94.064 51.2295 92.912C48.3282 91.76 45.8322 90.1387 43.7415 88.048C41.6935 85.9147 40.0935 83.3333 38.9415 80.304C37.8322 77.2747 37.2775 73.904 37.2775 70.192C37.2775 66.3093 37.8748 62.768 39.0695 59.568C40.2642 56.368 41.9282 53.616 44.0615 51.312C46.2375 49.008 48.8188 47.2373 51.8055 46C54.8348 44.72 58.1628 44.08 61.7895 44.08C64.3495 44.08 66.7602 44.4427 69.0215 45.168C71.2828 45.8933 73.7362 47.0667 76.3815 48.688L77.5335 44.72ZM115.022 44.08C118.777 44.08 122.275 44.7413 125.518 46.064C128.761 47.3867 131.577 49.2 133.966 51.504C136.355 53.808 138.233 56.5173 139.598 59.632C140.963 62.7467 141.646 66.1173 141.646 69.744C141.646 73.2 140.942 76.4427 139.534 79.472C138.169 82.5013 136.291 85.1467 133.902 87.408C131.513 89.6267 128.697 91.3973 125.454 92.72C122.211 94 118.734 94.64 115.022 94.64C111.31 94.64 107.833 94 104.59 92.72C101.347 91.3973 98.5313 89.6267 96.142 87.408C93.7527 85.1467 91.854 82.5013 90.446 79.472C89.0807 76.4427 88.398 73.2 88.398 69.744C88.398 66.1173 89.0807 62.7467 90.446 59.632C91.8113 56.5173 93.6887 53.808 96.078 51.504C98.4673 49.2 101.283 47.3867 104.526 46.064C107.769 44.7413 111.267 44.08 115.022 44.08ZM115.022 91.12C117.838 91.12 120.355 90.6293 122.574 89.648C124.835 88.6667 126.755 87.2587 128.334 85.424C129.955 83.5893 131.193 81.3707 132.046 78.768C132.899 76.1227 133.326 73.1787 133.326 69.936C133.326 66.5227 132.899 63.4507 132.046 60.72C131.193 57.9467 129.977 55.6 128.398 53.68C126.819 51.7173 124.899 50.224 122.638 49.2C120.377 48.1333 117.838 47.6 115.022 47.6C112.206 47.6 109.667 48.1333 107.406 49.2C105.145 50.224 103.225 51.7173 101.646 53.68C100.067 55.6 98.8513 57.9467 97.998 60.72C97.1447 63.4507 96.718 66.5227 96.718 69.936C96.718 73.1787 97.1447 76.1227 97.998 78.768C98.8513 81.3707 100.067 83.5893 101.646 85.424C103.225 87.2587 105.145 88.6667 107.406 89.648C109.667 90.6293 112.206 91.12 115.022 91.12ZM146.932 94V91.568C148.553 91.5253 149.855 91.4187 150.836 91.248C151.86 91.0347 152.649 90.672 153.204 90.16C153.759 89.6053 154.121 88.88 154.292 87.984C154.505 87.0453 154.612 85.808 154.612 84.272V54.448C154.612 52.9547 154.527 51.76 154.356 50.864C154.228 49.9253 153.929 49.2 153.46 48.688C153.033 48.1333 152.393 47.7707 151.54 47.6C150.687 47.3867 149.577 47.2373 148.212 47.152V44.72H170.676C174.516 44.72 178.057 45.36 181.3 46.64C184.585 47.92 187.401 49.6907 189.748 51.952C192.137 54.2133 193.993 56.9013 195.316 60.016C196.639 63.1307 197.3 66.5227 197.3 70.192C197.3 73.6907 196.681 76.912 195.444 79.856C194.207 82.7573 192.457 85.2533 190.196 87.344C187.977 89.4347 185.311 91.0773 182.196 92.272C179.081 93.424 175.668 94 171.956 94H146.932ZM162.42 47.856C161.695 47.856 161.332 48.2187 161.332 48.944V83.568C161.332 88.432 164.511 90.864 170.868 90.864C176.713 90.864 181.193 89.136 184.308 85.68C187.423 82.1813 188.98 77.0613 188.98 70.32C188.98 66.7787 188.553 63.6213 187.7 60.848C186.847 58.0747 185.609 55.728 183.988 53.808C182.409 51.888 180.489 50.416 178.228 49.392C175.967 48.368 173.407 47.856 170.548 47.856H162.42ZM216.89 81.904C216.89 84.0373 216.975 85.7227 217.146 86.96C217.317 88.1973 217.637 89.1573 218.106 89.84C218.618 90.5227 219.322 90.9707 220.218 91.184C221.157 91.3973 222.373 91.5253 223.866 91.568V94H203.13V91.568C204.623 91.5253 205.818 91.3973 206.714 91.184C207.653 90.928 208.378 90.48 208.89 89.84C209.402 89.2 209.743 88.304 209.914 87.152C210.085 85.9573 210.17 84.3573 210.17 82.352V56.368C210.17 54.576 210.085 53.104 209.914 51.952C209.786 50.7573 209.487 49.8187 209.018 49.136C208.591 48.4533 207.951 47.984 207.098 47.728C206.245 47.4293 205.135 47.2373 203.77 47.152V44.72H223.226V47.152C221.861 47.1947 220.751 47.3653 219.898 47.664C219.087 47.9627 218.447 48.4747 217.978 49.2C217.551 49.8827 217.253 50.8427 217.082 52.08C216.954 53.3173 216.89 54.896 216.89 56.816V81.904ZM271.229 94.64L240.829 54.576H240.573V81.904C240.573 84.0373 240.637 85.7227 240.765 86.96C240.935 88.1973 241.234 89.1573 241.661 89.84C242.13 90.5227 242.77 90.9707 243.581 91.184C244.434 91.3973 245.543 91.5253 246.909 91.568V94H229.693V91.568C231.186 91.5253 232.381 91.3973 233.277 91.184C234.215 90.928 234.941 90.48 235.453 89.84C235.965 89.2 236.306 88.304 236.477 87.152C236.647 85.9573 236.733 84.3573 236.733 82.352V56.368C236.733 54.576 236.647 53.104 236.477 51.952C236.349 50.7573 236.05 49.8187 235.581 49.136C235.154 48.4533 234.514 47.984 233.661 47.728C232.807 47.4293 231.698 47.2373 230.333 47.152V44.72H243.005L270.973 82.032H271.229V56.816C271.229 54.7253 271.143 53.0613 270.973 51.824C270.845 50.544 270.546 49.5627 270.077 48.88C269.65 48.1973 269.01 47.7493 268.157 47.536C267.346 47.3227 266.258 47.1947 264.893 47.152V44.72H282.109V47.152C280.615 47.1947 279.399 47.344 278.461 47.6C277.565 47.8133 276.861 48.24 276.349 48.88C275.837 49.52 275.495 50.4373 275.325 51.632C275.154 52.8267 275.069 54.4053 275.069 56.368V94.64H271.229ZM311.267 94.64C307.64 94.64 304.376 94.064 301.475 92.912C298.574 91.76 296.099 90.1387 294.051 88.048C292.003 85.9147 290.424 83.3333 289.315 80.304C288.248 77.2747 287.715 73.904 287.715 70.192C287.715 66.3093 288.312 62.768 289.507 59.568C290.702 56.368 292.366 53.616 294.499 51.312C296.675 49.008 299.256 47.2373 302.243 46C305.272 44.72 308.6 44.08 312.227 44.08C314.787 44.08 317.198 44.4427 319.459 45.168C321.72 45.8933 324.174 47.0667 326.819 48.688L328.163 44.72H330.403L329.571 59.44H326.499C326.499 57.3493 326.094 55.5573 325.283 54.064C324.515 52.528 323.491 51.2693 322.211 50.288C320.931 49.3067 319.459 48.5813 317.795 48.112C316.174 47.6427 314.51 47.408 312.803 47.408C310.2 47.408 307.875 47.92 305.827 48.944C303.779 49.968 302.051 51.44 300.643 53.36C299.235 55.28 298.147 57.6267 297.379 60.4C296.654 63.1733 296.291 66.3093 296.291 69.808C296.291 76.6773 297.72 81.968 300.579 85.68C303.438 89.3493 307.576 91.184 312.995 91.184C315.043 91.184 316.878 90.9493 318.499 90.48C320.12 89.968 321.486 89.3067 322.595 88.496C323.747 87.6427 324.6 86.6827 325.155 85.616C325.752 84.5067 326.051 83.3547 326.051 82.16C326.051 79.6853 325.539 78.0213 324.515 77.168C323.534 76.272 321.912 75.824 319.651 75.824V73.392H337.827V75.824C336.803 75.824 335.95 75.9093 335.267 76.08C334.584 76.2507 334.03 76.5707 333.603 77.04C333.219 77.4667 332.942 78.0427 332.771 78.768C332.643 79.4933 332.579 80.4107 332.579 81.52V88.688C331.768 88.688 331.022 88.7307 330.339 88.816C329.699 88.8587 329.016 89.008 328.291 89.264C327.566 89.4773 326.755 89.7973 325.859 90.224C325.006 90.608 323.982 91.1413 322.787 91.824C321.294 92.6773 319.566 93.36 317.603 93.872C315.683 94.384 313.571 94.64 311.267 94.64Z" fill="white"/>
<path id="Vector 11" d="M3 15L143 15" stroke="white" stroke-width="5" stroke-linecap="round" stroke-linejoin="round"/>
<path id="Vector 12" d="M230 15L370 15" stroke="white" stroke-width="5" stroke-linecap="round" stroke-linejoin="round"/>
<path id="Vector 13" d="M295 127L370 127" stroke="white" stroke-width="5" stroke-linecap="round" stroke-linejoin="round"/>
<path id="Vector 14" d="M3 127L78 127" stroke="white" stroke-width="5" stroke-linecap="round" stroke-linejoin="round"/>
</g>
</svg>
