<svg width="800" height="500" viewBox="0 0 800 500" fill="none" xmlns="http://www.w3.org/2000/svg">
<rect width="800" height="500" fill="#9FE8A2"/>
<path d="M106.92 99.08C106.92 95.4 105.08 93.56 101.4 93.56H85.76C82.08 93.56 80.24 95.4 80.24 99.08V128.52C80.24 132.2 82.08 134.04 85.76 134.04H101.4C105.08 134.04 106.92 132.2 106.92 128.52V99.08ZM123.48 128.52C123.48 134.96 122.008 139.652 119.064 142.596C116.181 145.479 111.52 146.92 105.08 146.92H82.08C75.64 146.92 70.948 145.479 68.004 142.596C65.1213 139.652 63.68 134.96 63.68 128.52V99.08C63.68 92.64 65.1213 87.9787 68.004 85.096C70.948 82.152 75.64 80.68 82.08 80.68H105.08C111.52 80.68 116.181 82.152 119.064 85.096C122.008 87.9787 123.48 92.64 123.48 99.08V128.52ZM158.943 109.66C155.692 109.66 152.012 110.273 147.903 111.5V133.58H161.703C164.156 133.58 165.383 132.353 165.383 129.9V112.88C165.383 111.96 165.076 111.193 164.463 110.58C163.85 109.967 163.083 109.66 162.163 109.66H158.943ZM147.903 146V161.64H131.803V97.24H146.063L146.983 101.84C149.866 99.9387 152.81 98.5587 155.815 97.7C158.882 96.78 161.458 96.32 163.543 96.32H167.683C171.854 96.32 175.196 97.5773 177.711 100.092C180.226 102.607 181.483 105.949 181.483 110.12V131.28C181.483 135.88 180.164 139.499 177.527 142.136C174.951 144.712 171.363 146 166.763 146H147.903ZM208.612 107.82C206.159 107.82 204.932 109.047 204.932 111.5V116.56H220.572V111.5C220.572 109.047 219.346 107.82 216.892 107.82H208.612ZM234.832 145.08C222.995 146.307 212.262 146.92 202.632 146.92C198.462 146.92 195.119 145.663 192.604 143.148C190.09 140.633 188.832 137.291 188.832 133.12V111.04C188.832 106.44 190.12 102.852 192.696 100.276C195.334 97.6387 198.952 96.32 203.552 96.32H221.952C226.552 96.32 230.14 97.6387 232.716 100.276C235.354 102.852 236.672 106.44 236.672 111.04V128.06H204.932V131.74C204.932 132.66 205.239 133.427 205.852 134.04C206.466 134.653 207.232 134.96 208.152 134.96C214.224 134.96 223.118 134.5 234.832 133.58V145.08ZM272.056 109.66C268.806 109.66 265.126 110.273 261.016 111.5V146H244.916V97.24H259.176L260.096 101.84C262.979 99.9387 265.923 98.5587 268.928 97.7C271.995 96.78 274.571 96.32 276.656 96.32H280.796C284.967 96.32 288.31 97.5773 290.824 100.092C293.339 102.607 294.596 105.949 294.596 110.12V146H278.496V112.88C278.496 111.96 278.19 111.193 277.576 110.58C276.963 109.967 276.196 109.66 275.276 109.66H272.056ZM63.588 269.66C80.3933 270.58 91.7707 271.04 97.72 271.04C99.1307 271.04 100.235 270.641 101.032 269.844C101.891 268.985 102.32 267.851 102.32 266.44V258.16H81.16C74.72 258.16 70.028 256.719 67.084 253.836C64.2013 250.892 62.76 246.2 62.76 239.76V237C62.76 230.56 64.2013 225.899 67.084 223.016C70.028 220.072 74.72 218.6 81.16 218.6H113.452V231.48H84.84C81.16 231.48 79.32 233.32 79.32 237V238.84C79.32 242.52 81.16 244.36 84.84 244.36H101.4C107.411 244.36 111.827 245.771 114.648 248.592C117.469 251.413 118.88 255.829 118.88 261.84V266.44C118.88 272.451 117.469 276.867 114.648 279.688C111.827 282.509 107.411 283.92 101.4 283.92C98.272 283.92 94.96 283.859 91.464 283.736L83 283.368C76.744 283.061 70.2733 282.632 63.588 282.08V269.66ZM175.913 269.2C175.913 273.8 174.594 277.419 171.957 280.056C169.381 282.632 165.793 283.92 161.193 283.92H140.033C135.433 283.92 131.814 282.632 129.177 280.056C126.601 277.419 125.313 273.8 125.313 269.2V248.04C125.313 243.44 126.601 239.852 129.177 237.276C131.814 234.639 135.433 233.32 140.033 233.32H161.193C165.793 233.32 169.381 234.639 171.957 237.276C174.594 239.852 175.913 243.44 175.913 248.04V269.2ZM159.813 249.42C159.813 246.967 158.586 245.74 156.133 245.74H145.093C142.639 245.74 141.413 246.967 141.413 249.42V267.82C141.413 270.273 142.639 271.5 145.093 271.5H156.133C158.586 271.5 159.813 270.273 159.813 267.82V249.42ZM206.722 270.58C209.973 270.58 213.653 269.967 217.762 268.74V234.24H233.862V283H219.602L218.682 278.4C215.799 280.301 212.825 281.712 209.758 282.632C206.753 283.491 204.207 283.92 202.122 283.92H197.982C193.811 283.92 190.469 282.663 187.954 280.148C185.439 277.633 184.182 274.291 184.182 270.12V234.24H200.282V267.36C200.282 268.28 200.589 269.047 201.202 269.66C201.815 270.273 202.582 270.58 203.502 270.58H206.722ZM271.09 247.58C267.226 247.58 263.239 248.5 259.13 250.34V283H243.03V234.24H257.29L258.21 240.22C263.484 235.62 269.004 233.32 274.77 233.32H278.91V247.58H271.09ZM326.789 282.08C315.32 283.307 305.2 283.92 296.429 283.92C292.259 283.92 288.916 282.663 286.401 280.148C283.887 277.633 282.629 274.291 282.629 270.12V248.96C282.629 244.36 283.917 240.772 286.493 238.196C289.131 235.559 292.749 234.24 297.349 234.24H326.789V246.66H302.409C299.956 246.66 298.729 247.887 298.729 250.34V268.28C298.729 269.2 299.036 269.967 299.649 270.58C300.263 271.193 301.029 271.5 301.949 271.5C307.469 271.5 315.749 271.04 326.789 270.12V282.08ZM352.991 244.82C350.538 244.82 349.311 246.047 349.311 248.5V253.56H364.951V248.5C364.951 246.047 363.725 244.82 361.271 244.82H352.991ZM379.211 282.08C367.374 283.307 356.641 283.92 347.011 283.92C342.841 283.92 339.498 282.663 336.983 280.148C334.469 277.633 333.211 274.291 333.211 270.12V248.04C333.211 243.44 334.499 239.852 337.075 237.276C339.713 234.639 343.331 233.32 347.931 233.32H366.331C370.931 233.32 374.519 234.639 377.095 237.276C379.733 239.852 381.051 243.44 381.051 248.04V265.06H349.311V268.74C349.311 269.66 349.618 270.427 350.231 271.04C350.845 271.653 351.611 271.96 352.531 271.96C358.603 271.96 367.497 271.5 379.211 270.58V282.08ZM120.72 418.62C106.368 420.153 93.1813 420.92 81.16 420.92C75.1493 420.92 70.7333 419.509 67.912 416.688C65.0907 413.867 63.68 409.451 63.68 403.44V374C63.68 367.56 65.1213 362.899 68.004 360.016C70.948 357.072 75.64 355.6 82.08 355.6H115.2V368.48H85.76C82.08 368.48 80.24 370.32 80.24 374V403.44C80.24 404.851 80.6387 405.985 81.436 406.844C82.2947 407.641 83.4293 408.04 84.84 408.04C91.8933 408.04 98.3333 407.887 104.16 407.58V394.24H92.2V383.2H120.72V418.62ZM151.558 407.58C154.809 407.58 158.489 406.967 162.598 405.74V371.24H178.698V420H164.438L163.518 415.4C160.635 417.301 157.661 418.712 154.594 419.632C151.589 420.491 149.043 420.92 146.958 420.92H142.818C138.647 420.92 135.305 419.663 132.79 417.148C130.275 414.633 129.018 411.291 129.018 407.12V371.24H145.118V404.36C145.118 405.28 145.425 406.047 146.038 406.66C146.651 407.273 147.418 407.58 148.338 407.58H151.558ZM208.106 373.08V420H192.006V385.5H185.106V373.08H208.106ZM192.006 354.68H208.106V367.56H192.006V354.68ZM251.834 420L250.914 415.4C248.032 417.301 245.057 418.712 241.99 419.632C238.985 420.491 236.44 420.92 234.354 420.92H230.214C226.044 420.92 222.701 419.663 220.186 417.148C217.672 414.633 216.414 411.291 216.414 407.12V385.96C216.414 381.36 217.702 377.772 220.278 375.196C222.916 372.559 226.534 371.24 231.134 371.24H249.994V355.6H266.094V420H251.834ZM238.954 407.58C242.205 407.58 245.885 406.967 249.994 405.74V383.66H236.194C233.741 383.66 232.514 384.887 232.514 387.34V404.36C232.514 405.28 232.821 406.047 233.434 406.66C234.048 407.273 234.814 407.58 235.734 407.58H238.954ZM294.144 381.82C291.69 381.82 290.464 383.047 290.464 385.5V390.56H306.104V385.5C306.104 383.047 304.877 381.82 302.424 381.82H294.144ZM320.364 419.08C308.526 420.307 297.793 420.92 288.164 420.92C283.993 420.92 280.65 419.663 278.136 417.148C275.621 414.633 274.364 411.291 274.364 407.12V385.04C274.364 380.44 275.652 376.852 278.228 374.276C280.865 371.639 284.484 370.32 289.084 370.32H307.484C312.084 370.32 315.672 371.639 318.248 374.276C320.885 376.852 322.204 380.44 322.204 385.04V402.06H290.464V405.74C290.464 406.66 290.77 407.427 291.384 408.04C291.997 408.653 292.764 408.96 293.684 408.96C299.756 408.96 308.649 408.5 320.364 407.58V419.08Z" fill="white"/>
<path d="M119.064 142.596L117.65 141.182L117.65 141.182L119.064 142.596ZM68.004 142.596L66.575 143.995L66.5897 144.01L66.6048 144.025L68.004 142.596ZM68.004 85.096L66.5898 83.6818L66.5898 83.6818L68.004 85.096ZM119.064 85.096L117.635 86.4952L117.65 86.5103L117.665 86.525L119.064 85.096ZM108.92 99.08C108.92 96.9317 108.382 94.9531 106.954 93.5258C105.527 92.0984 103.548 91.56 101.4 91.56V95.56C102.932 95.56 103.713 95.9416 104.126 96.3542C104.538 96.7668 104.92 97.5483 104.92 99.08H108.92ZM101.4 91.56H85.76V95.56H101.4V91.56ZM85.76 91.56C83.6117 91.56 81.6331 92.0984 80.2058 93.5258C78.7784 94.9531 78.24 96.9317 78.24 99.08H82.24C82.24 97.5483 82.6216 96.7668 83.0342 96.3542C83.4469 95.9416 84.2283 95.56 85.76 95.56V91.56ZM78.24 99.08V128.52H82.24V99.08H78.24ZM78.24 128.52C78.24 130.668 78.7784 132.647 80.2058 134.074C81.6331 135.502 83.6117 136.04 85.76 136.04V132.04C84.2283 132.04 83.4469 131.658 83.0342 131.246C82.6216 130.833 82.24 130.052 82.24 128.52H78.24ZM85.76 136.04H101.4V132.04H85.76V136.04ZM101.4 136.04C103.548 136.04 105.527 135.502 106.954 134.074C108.382 132.647 108.92 130.668 108.92 128.52H104.92C104.92 130.052 104.538 130.833 104.126 131.246C103.713 131.658 102.932 132.04 101.4 132.04V136.04ZM108.92 128.52V99.08H104.92V128.52H108.92ZM121.48 128.52C121.48 134.713 120.057 138.774 117.65 141.182L120.478 144.01C123.959 140.53 125.48 135.207 125.48 128.52H121.48ZM117.65 141.182C115.31 143.521 111.287 144.92 105.08 144.92V148.92C111.753 148.92 117.053 147.436 120.478 144.01L117.65 141.182ZM105.08 144.92H82.08V148.92H105.08V144.92ZM82.08 144.92C75.8778 144.92 71.8099 143.523 69.4033 141.167L66.6048 144.025C70.0861 147.434 75.4022 148.92 82.08 148.92V144.92ZM69.433 141.197C67.0765 138.79 65.68 134.722 65.68 128.52H61.68C61.68 135.198 63.1661 140.514 66.575 143.995L69.433 141.197ZM65.68 128.52V99.08H61.68V128.52H65.68ZM65.68 99.08C65.68 92.8729 67.0786 88.8499 69.4182 86.5102L66.5898 83.6818C63.1641 87.1075 61.68 92.4071 61.68 99.08H65.68ZM69.4182 86.5102C71.8257 84.1027 75.8874 82.68 82.08 82.68V78.68C75.3926 78.68 70.0703 80.2013 66.5898 83.6818L69.4182 86.5102ZM82.08 82.68H105.08V78.68H82.08V82.68ZM105.08 82.68C111.277 82.68 115.294 84.1047 117.635 86.4952L120.493 83.6967C117.068 80.1993 111.763 78.68 105.08 78.68V82.68ZM117.665 86.525C120.055 88.8658 121.48 92.8826 121.48 99.08H125.48C125.48 92.3974 123.961 87.0916 120.463 83.667L117.665 86.525ZM121.48 99.08V128.52H125.48V99.08H121.48ZM147.903 111.5L147.331 109.584L145.903 110.01V111.5H147.903ZM147.903 133.58H145.903V135.58H147.903V133.58ZM164.463 110.58L165.877 109.166L165.877 109.166L164.463 110.58ZM147.903 146V144H145.903V146H147.903ZM147.903 161.64V163.64H149.903V161.64H147.903ZM131.803 161.64H129.803V163.64H131.803V161.64ZM131.803 97.24V95.24H129.803V97.24H131.803ZM146.063 97.24L148.024 96.8478L147.703 95.24H146.063V97.24ZM146.983 101.84L145.022 102.232L145.605 105.145L148.084 103.51L146.983 101.84ZM155.815 97.7L156.365 99.623L156.377 99.6194L156.39 99.6156L155.815 97.7ZM177.711 100.092L176.297 101.506L176.297 101.506L177.711 100.092ZM177.527 142.136L178.941 143.55L178.941 143.55L177.527 142.136ZM158.943 107.66C155.448 107.66 151.571 108.318 147.331 109.584L148.475 113.416C152.454 112.229 155.937 111.66 158.943 111.66V107.66ZM145.903 111.5V133.58H149.903V111.5H145.903ZM147.903 135.58H161.703V131.58H147.903V135.58ZM161.703 135.58C163.238 135.58 164.757 135.195 165.877 134.074C166.998 132.954 167.383 131.435 167.383 129.9H163.383C163.383 130.818 163.155 131.14 163.049 131.246C162.943 131.352 162.622 131.58 161.703 131.58V135.58ZM167.383 129.9V112.88H163.383V129.9H167.383ZM167.383 112.88C167.383 111.465 166.89 110.179 165.877 109.166L163.049 111.994C163.263 112.208 163.383 112.455 163.383 112.88H167.383ZM165.877 109.166C164.864 108.153 163.578 107.66 162.163 107.66V111.66C162.588 111.66 162.835 111.78 163.049 111.994L165.877 109.166ZM162.163 107.66H158.943V111.66H162.163V107.66ZM145.903 146V161.64H149.903V146H145.903ZM147.903 159.64H131.803V163.64H147.903V159.64ZM133.803 161.64V97.24H129.803V161.64H133.803ZM131.803 99.24H146.063V95.24H131.803V99.24ZM144.102 97.6322L145.022 102.232L148.944 101.448L148.024 96.8478L144.102 97.6322ZM148.084 103.51C150.815 101.709 153.574 100.42 156.365 99.623L155.266 95.7769C152.045 96.6971 148.917 98.1687 145.882 100.17L148.084 103.51ZM156.39 99.6156C159.358 98.7251 161.727 98.32 163.543 98.32V94.32C161.188 94.32 158.405 94.8349 155.24 95.7843L156.39 99.6156ZM163.543 98.32H167.683V94.32H163.543V98.32ZM167.683 98.32C171.422 98.32 174.222 99.4311 176.297 101.506L179.125 98.6778C176.171 95.7235 172.285 94.32 167.683 94.32V98.32ZM176.297 101.506C178.372 103.581 179.483 106.381 179.483 110.12H183.483C183.483 105.518 182.08 101.632 179.125 98.6778L176.297 101.506ZM179.483 110.12V131.28H183.483V110.12H179.483ZM179.483 131.28C179.483 135.481 178.292 138.543 176.113 140.722L178.941 143.55C182.037 140.454 183.483 136.279 183.483 131.28H179.483ZM176.113 140.722C174.004 142.83 170.979 144 166.763 144V148C171.747 148 175.898 146.594 178.941 143.55L176.113 140.722ZM166.763 144H147.903V148H166.763V144ZM204.932 116.56H202.932V118.56H204.932V116.56ZM220.572 116.56V118.56H222.572V116.56H220.572ZM234.832 145.08L235.038 147.069L236.832 146.883V145.08H234.832ZM192.604 143.148L191.19 144.562L191.19 144.562L192.604 143.148ZM192.696 100.276L194.111 101.69L194.111 101.69L192.696 100.276ZM232.716 100.276L231.286 101.673L231.302 101.69L231.319 101.707L232.716 100.276ZM236.672 128.06V130.06H238.672V128.06H236.672ZM204.932 128.06V126.06H202.932V128.06H204.932ZM205.852 134.04L207.267 132.626L207.267 132.626L205.852 134.04ZM234.832 133.58H236.832V131.417L234.676 131.586L234.832 133.58ZM208.612 105.82C207.077 105.82 205.559 106.205 204.438 107.326C203.317 108.446 202.932 109.965 202.932 111.5H206.932C206.932 110.582 207.161 110.26 207.267 110.154C207.373 110.048 207.694 109.82 208.612 109.82V105.82ZM202.932 111.5V116.56H206.932V111.5H202.932ZM204.932 118.56H220.572V114.56H204.932V118.56ZM222.572 116.56V111.5H218.572V116.56H222.572ZM222.572 111.5C222.572 109.965 222.187 108.446 221.067 107.326C219.946 106.205 218.427 105.82 216.892 105.82V109.82C217.811 109.82 218.132 110.048 218.238 110.154C218.344 110.26 218.572 110.582 218.572 111.5H222.572ZM216.892 105.82H208.612V109.82H216.892V105.82ZM234.626 143.091C222.842 144.312 212.179 144.92 202.632 144.92V148.92C212.344 148.92 223.148 148.302 235.038 147.069L234.626 143.091ZM202.632 144.92C198.893 144.92 196.094 143.809 194.019 141.734L191.19 144.562C194.144 147.516 198.03 148.92 202.632 148.92V144.92ZM194.019 141.734C191.943 139.659 190.832 136.859 190.832 133.12H186.832C186.832 137.722 188.236 141.608 191.19 144.562L194.019 141.734ZM190.832 133.12V111.04H186.832V133.12H190.832ZM190.832 111.04C190.832 106.824 192.002 103.799 194.111 101.69L191.282 98.8618C188.239 101.905 186.832 106.056 186.832 111.04H190.832ZM194.111 101.69C196.289 99.5116 199.351 98.32 203.552 98.32V94.32C198.553 94.32 194.378 95.7657 191.282 98.8618L194.111 101.69ZM203.552 98.32H221.952V94.32H203.552V98.32ZM221.952 98.32C226.155 98.32 229.175 99.5121 231.286 101.673L234.147 98.8785C231.106 95.7652 226.949 94.32 221.952 94.32V98.32ZM231.319 101.707C233.48 103.818 234.672 106.837 234.672 111.04H238.672C238.672 106.043 237.227 101.886 234.114 98.8452L231.319 101.707ZM234.672 111.04V128.06H238.672V111.04H234.672ZM236.672 126.06H204.932V130.06H236.672V126.06ZM202.932 128.06V131.74H206.932V128.06H202.932ZM202.932 131.74C202.932 133.155 203.425 134.441 204.438 135.454L207.267 132.626C207.053 132.412 206.932 132.165 206.932 131.74H202.932ZM204.438 135.454C205.451 136.467 206.738 136.96 208.152 136.96V132.96C207.727 132.96 207.48 132.84 207.267 132.626L204.438 135.454ZM208.152 136.96C214.305 136.96 223.261 136.495 234.989 135.574L234.676 131.586C222.975 132.505 214.144 132.96 208.152 132.96V136.96ZM232.832 133.58V145.08H236.832V133.58H232.832ZM261.016 111.5L260.444 109.584L259.016 110.01V111.5H261.016ZM261.016 146V148H263.016V146H261.016ZM244.916 146H242.916V148H244.916V146ZM244.916 97.24V95.24H242.916V97.24H244.916ZM259.176 97.24L261.138 96.8478L260.816 95.24H259.176V97.24ZM260.096 101.84L258.135 102.232L258.718 105.145L261.198 103.51L260.096 101.84ZM268.928 97.7L269.478 99.623L269.491 99.6194L269.503 99.6156L268.928 97.7ZM290.824 100.092L289.41 101.506L289.41 101.506L290.824 100.092ZM294.596 146V148H296.596V146H294.596ZM278.496 146H276.496V148H278.496V146ZM277.576 110.58L278.991 109.166L278.991 109.166L277.576 110.58ZM272.056 107.66C268.562 107.66 264.684 108.318 260.444 109.584L261.588 113.416C265.568 112.229 269.05 111.66 272.056 111.66V107.66ZM259.016 111.5V146H263.016V111.5H259.016ZM261.016 144H244.916V148H261.016V144ZM246.916 146V97.24H242.916V146H246.916ZM244.916 99.24H259.176V95.24H244.916V99.24ZM257.215 97.6322L258.135 102.232L262.058 101.448L261.138 96.8478L257.215 97.6322ZM261.198 103.51C263.928 101.709 266.688 100.42 269.478 99.623L268.379 95.7769C265.159 96.6971 262.03 98.1687 258.995 100.17L261.198 103.51ZM269.503 99.6156C272.472 98.7251 274.84 98.32 276.656 98.32V94.32C274.302 94.32 271.518 94.8349 268.354 95.7843L269.503 99.6156ZM276.656 98.32H280.796V94.32H276.656V98.32ZM280.796 98.32C284.535 98.32 287.335 99.4311 289.41 101.506L292.239 98.6778C289.284 95.7235 285.399 94.32 280.796 94.32V98.32ZM289.41 101.506C291.485 103.581 292.596 106.381 292.596 110.12H296.596C296.596 105.518 295.193 101.632 292.239 98.6778L289.41 101.506ZM292.596 110.12V146H296.596V110.12H292.596ZM294.596 144H278.496V148H294.596V144ZM280.496 146V112.88H276.496V146H280.496ZM280.496 112.88C280.496 111.465 280.004 110.179 278.991 109.166L276.162 111.994C276.376 112.208 276.496 112.455 276.496 112.88H280.496ZM278.991 109.166C277.978 108.153 276.691 107.66 275.276 107.66V111.66C275.702 111.66 275.948 111.78 276.162 111.994L278.991 109.166ZM275.276 107.66H272.056V111.66H275.276V107.66ZM63.588 269.66L63.6973 267.663L61.588 267.548V269.66H63.588ZM101.032 269.844L99.6178 268.43L99.6178 268.43L101.032 269.844ZM102.32 258.16H104.32V256.16H102.32V258.16ZM67.084 253.836L65.655 255.235L65.6697 255.25L65.6848 255.265L67.084 253.836ZM67.084 223.016L68.4982 224.43L68.4982 224.43L67.084 223.016ZM113.452 218.6H115.452V216.6H113.452V218.6ZM113.452 231.48V233.48H115.452V231.48H113.452ZM114.648 279.688L113.234 278.274L113.234 278.274L114.648 279.688ZM91.464 283.736L91.3771 285.734L91.3855 285.734L91.3939 285.735L91.464 283.736ZM83 283.368L82.9021 285.366L82.9131 285.366L83 283.368ZM63.588 282.08H61.588V283.922L63.4234 284.073L63.588 282.08ZM63.4787 271.657C80.2773 272.577 91.7077 273.04 97.72 273.04V269.04C91.8337 269.04 80.5094 268.583 63.6973 267.663L63.4787 271.657ZM97.72 273.04C99.5205 273.04 101.185 272.52 102.446 271.258L99.6178 268.43C99.2845 268.763 98.7408 269.04 97.72 269.04V273.04ZM102.446 271.258C103.741 269.964 104.32 268.288 104.32 266.44H100.32C100.32 267.413 100.041 268.007 99.6178 268.43L102.446 271.258ZM104.32 266.44V258.16H100.32V266.44H104.32ZM102.32 256.16H81.16V260.16H102.32V256.16ZM81.16 256.16C74.9578 256.16 70.8899 254.763 68.4833 252.407L65.6848 255.265C69.1661 258.674 74.4822 260.16 81.16 260.16V256.16ZM68.513 252.437C66.1565 250.03 64.76 245.962 64.76 239.76H60.76C60.76 246.438 62.2461 251.754 65.655 255.235L68.513 252.437ZM64.76 239.76V237H60.76V239.76H64.76ZM64.76 237C64.76 230.793 66.1586 226.77 68.4982 224.43L65.6698 221.602C62.2441 225.027 60.76 230.327 60.76 237H64.76ZM68.4982 224.43C70.9057 222.023 74.9674 220.6 81.16 220.6V216.6C74.4726 216.6 69.1503 218.121 65.6698 221.602L68.4982 224.43ZM81.16 220.6H113.452V216.6H81.16V220.6ZM111.452 218.6V231.48H115.452V218.6H111.452ZM113.452 229.48H84.84V233.48H113.452V229.48ZM84.84 229.48C82.6917 229.48 80.7131 230.018 79.2858 231.446C77.8584 232.873 77.32 234.852 77.32 237H81.32C81.32 235.468 81.7016 234.687 82.1142 234.274C82.5269 233.862 83.3083 233.48 84.84 233.48V229.48ZM77.32 237V238.84H81.32V237H77.32ZM77.32 238.84C77.32 240.988 77.8584 242.967 79.2858 244.394C80.7131 245.822 82.6917 246.36 84.84 246.36V242.36C83.3083 242.36 82.5269 241.978 82.1142 241.566C81.7016 241.153 81.32 240.372 81.32 238.84H77.32ZM84.84 246.36H101.4V242.36H84.84V246.36ZM101.4 246.36C107.145 246.36 110.941 247.713 113.234 250.006L116.062 247.178C112.713 243.828 107.676 242.36 101.4 242.36V246.36ZM113.234 250.006C115.527 252.299 116.88 256.095 116.88 261.84H120.88C120.88 255.564 119.412 250.527 116.062 247.178L113.234 250.006ZM116.88 261.84V266.44H120.88V261.84H116.88ZM116.88 266.44C116.88 272.185 115.527 275.981 113.234 278.274L116.062 281.102C119.412 277.753 120.88 272.716 120.88 266.44H116.88ZM113.234 278.274C110.941 280.567 107.145 281.92 101.4 281.92V285.92C107.676 285.92 112.713 284.452 116.062 281.102L113.234 278.274ZM101.4 281.92C98.2979 281.92 95.0094 281.859 91.5341 281.737L91.3939 285.735C94.9106 285.858 98.2461 285.92 101.4 285.92V281.92ZM91.5509 281.738L83.0869 281.37L82.9131 285.366L91.3771 285.734L91.5509 281.738ZM83.0979 281.37C76.8657 281.065 70.4173 280.637 63.7526 280.087L63.4234 284.073C70.1294 284.627 76.6223 285.058 82.9021 285.366L83.0979 281.37ZM65.588 282.08V269.66H61.588V282.08H65.588ZM171.957 280.056L173.371 281.47L173.371 281.47L171.957 280.056ZM129.177 280.056L127.746 281.453L127.763 281.47L127.779 281.487L129.177 280.056ZM129.177 237.276L130.591 238.69L130.591 238.69L129.177 237.276ZM171.957 237.276L170.526 238.673L170.543 238.69L170.559 238.707L171.957 237.276ZM173.913 269.2C173.913 273.401 172.721 276.463 170.543 278.642L173.371 281.47C176.467 278.374 177.913 274.199 177.913 269.2H173.913ZM170.543 278.642C168.434 280.75 165.409 281.92 161.193 281.92V285.92C166.177 285.92 170.328 284.514 173.371 281.47L170.543 278.642ZM161.193 281.92H140.033V285.92H161.193V281.92ZM140.033 281.92C135.819 281.92 132.751 280.751 130.574 278.625L127.779 281.487C130.878 284.513 135.047 285.92 140.033 285.92V281.92ZM130.608 278.659C128.482 276.482 127.313 273.414 127.313 269.2H123.313C123.313 274.186 124.72 278.355 127.746 281.453L130.608 278.659ZM127.313 269.2V248.04H123.313V269.2H127.313ZM127.313 248.04C127.313 243.824 128.482 240.799 130.591 238.69L127.763 235.862C124.719 238.905 123.313 243.056 123.313 248.04H127.313ZM130.591 238.69C132.77 236.512 135.832 235.32 140.033 235.32V231.32C135.034 231.32 130.859 232.766 127.763 235.862L130.591 238.69ZM140.033 235.32H161.193V231.32H140.033V235.32ZM161.193 235.32C165.396 235.32 168.415 236.512 170.526 238.673L173.388 235.879C170.347 232.765 166.19 231.32 161.193 231.32V235.32ZM170.559 238.707C172.721 240.818 173.913 243.837 173.913 248.04H177.913C177.913 243.043 176.468 238.886 173.354 235.845L170.559 238.707ZM173.913 248.04V269.2H177.913V248.04H173.913ZM161.813 249.42C161.813 247.885 161.428 246.366 160.307 245.246C159.186 244.125 157.668 243.74 156.133 243.74V247.74C157.051 247.74 157.373 247.968 157.479 248.074C157.585 248.18 157.813 248.502 157.813 249.42H161.813ZM156.133 243.74H145.093V247.74H156.133V243.74ZM145.093 243.74C143.558 243.74 142.039 244.125 140.919 245.246C139.798 246.366 139.413 247.885 139.413 249.42H143.413C143.413 248.502 143.641 248.18 143.747 248.074C143.853 247.968 144.174 247.74 145.093 247.74V243.74ZM139.413 249.42V267.82H143.413V249.42H139.413ZM139.413 267.82C139.413 269.355 139.798 270.874 140.919 271.994C142.039 273.115 143.558 273.5 145.093 273.5V269.5C144.174 269.5 143.853 269.272 143.747 269.166C143.641 269.06 143.413 268.738 143.413 267.82H139.413ZM145.093 273.5H156.133V269.5H145.093V273.5ZM156.133 273.5C157.668 273.5 159.186 273.115 160.307 271.994C161.428 270.874 161.813 269.355 161.813 267.82H157.813C157.813 268.738 157.585 269.06 157.479 269.166C157.373 269.272 157.051 269.5 156.133 269.5V273.5ZM161.813 267.82V249.42H157.813V267.82H161.813ZM217.762 268.74L218.334 270.656L219.762 270.23V268.74H217.762ZM217.762 234.24V232.24H215.762V234.24H217.762ZM233.862 234.24H235.862V232.24H233.862V234.24ZM233.862 283V285H235.862V283H233.862ZM219.602 283L217.641 283.392L217.962 285H219.602V283ZM218.682 278.4L220.643 278.008L220.061 275.095L217.581 276.73L218.682 278.4ZM209.758 282.632L210.307 284.555L210.32 284.551L210.333 284.548L209.758 282.632ZM187.954 280.148L189.368 278.734L189.368 278.734L187.954 280.148ZM184.182 234.24V232.24H182.182V234.24H184.182ZM200.282 234.24H202.282V232.24H200.282V234.24ZM201.202 269.66L202.616 268.246L202.616 268.246L201.202 269.66ZM206.722 272.58C210.217 272.58 214.095 271.922 218.334 270.656L217.19 266.824C213.211 268.011 209.729 268.58 206.722 268.58V272.58ZM219.762 268.74V234.24H215.762V268.74H219.762ZM217.762 236.24H233.862V232.24H217.762V236.24ZM231.862 234.24V283H235.862V234.24H231.862ZM233.862 281H219.602V285H233.862V281ZM221.563 282.608L220.643 278.008L216.721 278.792L217.641 283.392L221.563 282.608ZM217.581 276.73C214.848 278.533 212.049 279.857 209.183 280.716L210.333 284.548C213.6 283.567 216.751 282.07 219.783 280.07L217.581 276.73ZM209.209 280.709C206.302 281.539 203.954 281.92 202.122 281.92V285.92C204.461 285.92 207.203 285.442 210.307 284.555L209.209 280.709ZM202.122 281.92H197.982V285.92H202.122V281.92ZM197.982 281.92C194.243 281.92 191.443 280.809 189.368 278.734L186.54 281.562C189.494 284.516 193.38 285.92 197.982 285.92V281.92ZM189.368 278.734C187.293 276.659 186.182 273.859 186.182 270.12H182.182C182.182 274.722 183.586 278.608 186.54 281.562L189.368 278.734ZM186.182 270.12V234.24H182.182V270.12H186.182ZM184.182 236.24H200.282V232.24H184.182V236.24ZM198.282 234.24V267.36H202.282V234.24H198.282ZM198.282 267.36C198.282 268.775 198.775 270.061 199.788 271.074L202.616 268.246C202.403 268.032 202.282 267.785 202.282 267.36H198.282ZM199.788 271.074C200.801 272.087 202.087 272.58 203.502 272.58V268.58C203.077 268.58 202.83 268.46 202.616 268.246L199.788 271.074ZM203.502 272.58H206.722V268.58H203.502V272.58ZM259.13 250.34L258.312 248.515L257.13 249.044V250.34H259.13ZM259.13 283V285H261.13V283H259.13ZM243.03 283H241.03V285H243.03V283ZM243.03 234.24V232.24H241.03V234.24H243.03ZM257.29 234.24L259.266 233.936L259.006 232.24H257.29V234.24ZM258.21 240.22L256.233 240.524L256.786 244.116L259.524 241.727L258.21 240.22ZM278.91 233.32H280.91V231.32H278.91V233.32ZM278.91 247.58V249.58H280.91V247.58H278.91ZM271.09 245.58C266.901 245.58 262.637 246.578 258.312 248.515L259.947 252.165C263.841 250.422 267.55 249.58 271.09 249.58V245.58ZM257.13 250.34V283H261.13V250.34H257.13ZM259.13 281H243.03V285H259.13V281ZM245.03 283V234.24H241.03V283H245.03ZM243.03 236.24H257.29V232.24H243.03V236.24ZM255.313 234.544L256.233 240.524L260.186 239.916L259.266 233.936L255.313 234.544ZM259.524 241.727C264.516 237.374 269.586 235.32 274.77 235.32V231.32C268.423 231.32 262.453 233.866 256.895 238.713L259.524 241.727ZM274.77 235.32H278.91V231.32H274.77V235.32ZM276.91 233.32V247.58H280.91V233.32H276.91ZM278.91 245.58H271.09V249.58H278.91V245.58ZM326.789 282.08L327.002 284.069L328.789 283.878V282.08H326.789ZM286.401 280.148L284.987 281.562L284.987 281.562L286.401 280.148ZM286.493 238.196L287.907 239.61L287.907 239.61L286.493 238.196ZM326.789 234.24H328.789V232.24H326.789V234.24ZM326.789 246.66V248.66H328.789V246.66H326.789ZM326.789 270.12H328.789V267.946L326.623 268.127L326.789 270.12ZM326.577 280.091C315.157 281.313 305.111 281.92 296.429 281.92V285.92C305.289 285.92 315.483 285.301 327.002 284.069L326.577 280.091ZM296.429 281.92C292.69 281.92 289.891 280.809 287.815 278.734L284.987 281.562C287.941 284.516 291.827 285.92 296.429 285.92V281.92ZM287.815 278.734C285.74 276.659 284.629 273.859 284.629 270.12H280.629C280.629 274.722 282.033 278.608 284.987 281.562L287.815 278.734ZM284.629 270.12V248.96H280.629V270.12H284.629ZM284.629 248.96C284.629 244.744 285.799 241.719 287.907 239.61L285.079 236.782C282.036 239.825 280.629 243.976 280.629 248.96H284.629ZM287.907 239.61C290.086 237.432 293.148 236.24 297.349 236.24V232.24C292.35 232.24 288.175 233.686 285.079 236.782L287.907 239.61ZM297.349 236.24H326.789V232.24H297.349V236.24ZM324.789 234.24V246.66H328.789V234.24H324.789ZM326.789 244.66H302.409V248.66H326.789V244.66ZM302.409 244.66C300.874 244.66 299.356 245.045 298.235 246.166C297.114 247.286 296.729 248.805 296.729 250.34H300.729C300.729 249.422 300.957 249.1 301.063 248.994C301.169 248.888 301.491 248.66 302.409 248.66V244.66ZM296.729 250.34V268.28H300.729V250.34H296.729ZM296.729 268.28C296.729 269.695 297.222 270.981 298.235 271.994L301.063 269.166C300.85 268.952 300.729 268.705 300.729 268.28H296.729ZM298.235 271.994C299.248 273.007 300.534 273.5 301.949 273.5V269.5C301.524 269.5 301.277 269.38 301.063 269.166L298.235 271.994ZM301.949 273.5C307.556 273.5 315.903 273.034 326.955 272.113L326.623 268.127C315.595 269.046 307.383 269.5 301.949 269.5V273.5ZM324.789 270.12V282.08H328.789V270.12H324.789ZM349.311 253.56H347.311V255.56H349.311V253.56ZM364.951 253.56V255.56H366.951V253.56H364.951ZM379.211 282.08L379.417 284.069L381.211 283.883V282.08H379.211ZM336.983 280.148L335.569 281.562L335.569 281.562L336.983 280.148ZM337.075 237.276L338.489 238.69L338.489 238.69L337.075 237.276ZM377.095 237.276L375.664 238.673L375.681 238.69L375.698 238.707L377.095 237.276ZM381.051 265.06V267.06H383.051V265.06H381.051ZM349.311 265.06V263.06H347.311V265.06H349.311ZM350.231 271.04L351.645 269.626L351.645 269.626L350.231 271.04ZM379.211 270.58H381.211V268.417L379.055 268.586L379.211 270.58ZM352.991 242.82C351.456 242.82 349.938 243.205 348.817 244.326C347.696 245.446 347.311 246.965 347.311 248.5H351.311C351.311 247.582 351.539 247.26 351.645 247.154C351.751 247.048 352.073 246.82 352.991 246.82V242.82ZM347.311 248.5V253.56H351.311V248.5H347.311ZM349.311 255.56H364.951V251.56H349.311V255.56ZM366.951 253.56V248.5H362.951V253.56H366.951ZM366.951 248.5C366.951 246.965 366.566 245.446 365.445 244.326C364.325 243.205 362.806 242.82 361.271 242.82V246.82C362.19 246.82 362.511 247.048 362.617 247.154C362.723 247.26 362.951 247.582 362.951 248.5H366.951ZM361.271 242.82H352.991V246.82H361.271V242.82ZM379.005 280.091C367.221 281.312 356.558 281.92 347.011 281.92V285.92C356.723 285.92 367.527 285.302 379.417 284.069L379.005 280.091ZM347.011 281.92C343.272 281.92 340.473 280.809 338.397 278.734L335.569 281.562C338.523 284.516 342.409 285.92 347.011 285.92V281.92ZM338.397 278.734C336.322 276.659 335.211 273.859 335.211 270.12H331.211C331.211 274.722 332.615 278.608 335.569 281.562L338.397 278.734ZM335.211 270.12V248.04H331.211V270.12H335.211ZM335.211 248.04C335.211 243.824 336.381 240.799 338.489 238.69L335.661 235.862C332.618 238.905 331.211 243.056 331.211 248.04H335.211ZM338.489 238.69C340.668 236.512 343.73 235.32 347.931 235.32V231.32C342.932 231.32 338.757 232.766 335.661 235.862L338.489 238.69ZM347.931 235.32H366.331V231.32H347.931V235.32ZM366.331 235.32C370.534 235.32 373.553 236.512 375.664 238.673L378.526 235.879C375.485 232.765 371.328 231.32 366.331 231.32V235.32ZM375.698 238.707C377.859 240.818 379.051 243.837 379.051 248.04H383.051C383.051 243.043 381.606 238.886 378.493 235.845L375.698 238.707ZM379.051 248.04V265.06H383.051V248.04H379.051ZM381.051 263.06H349.311V267.06H381.051V263.06ZM347.311 265.06V268.74H351.311V265.06H347.311ZM347.311 268.74C347.311 270.155 347.804 271.441 348.817 272.454L351.645 269.626C351.432 269.412 351.311 269.165 351.311 268.74H347.311ZM348.817 272.454C349.83 273.467 351.117 273.96 352.531 273.96V269.96C352.106 269.96 351.859 269.84 351.645 269.626L348.817 272.454ZM352.531 273.96C358.684 273.96 367.64 273.495 379.368 272.574L379.055 268.586C367.354 269.505 358.523 269.96 352.531 269.96V273.96ZM377.211 270.58V282.08H381.211V270.58H377.211ZM120.72 418.62L120.932 420.609L122.72 420.418V418.62H120.72ZM67.912 416.688L69.3262 415.274L69.3262 415.274L67.912 416.688ZM68.004 360.016L69.4182 361.43L69.4182 361.43L68.004 360.016ZM115.2 355.6H117.2V353.6H115.2V355.6ZM115.2 368.48V370.48H117.2V368.48H115.2ZM81.436 406.844L79.9704 408.205L80.0208 408.259L80.0751 408.31L81.436 406.844ZM104.16 407.58L104.265 409.577L106.16 409.478V407.58H104.16ZM104.16 394.24H106.16V392.24H104.16V394.24ZM92.2 394.24H90.2V396.24H92.2V394.24ZM92.2 383.2V381.2H90.2V383.2H92.2ZM120.72 383.2H122.72V381.2H120.72V383.2ZM120.508 416.631C106.213 418.159 93.098 418.92 81.16 418.92V422.92C93.2647 422.92 106.523 422.148 120.932 420.609L120.508 416.631ZM81.16 418.92C75.4148 418.92 71.6194 417.567 69.3262 415.274L66.4978 418.102C69.8472 421.452 74.8839 422.92 81.16 422.92V418.92ZM69.3262 415.274C67.033 412.981 65.68 409.185 65.68 403.44H61.68C61.68 409.716 63.1483 414.753 66.4978 418.102L69.3262 415.274ZM65.68 403.44V374H61.68V403.44H65.68ZM65.68 374C65.68 367.793 67.0786 363.77 69.4182 361.43L66.5898 358.602C63.1641 362.027 61.68 367.327 61.68 374H65.68ZM69.4182 361.43C71.8257 359.023 75.8874 357.6 82.08 357.6V353.6C75.3926 353.6 70.0703 355.121 66.5898 358.602L69.4182 361.43ZM82.08 357.6H115.2V353.6H82.08V357.6ZM113.2 355.6V368.48H117.2V355.6H113.2ZM115.2 366.48H85.76V370.48H115.2V366.48ZM85.76 366.48C83.6117 366.48 81.6331 367.018 80.2058 368.446C78.7784 369.873 78.24 371.852 78.24 374H82.24C82.24 372.468 82.6216 371.687 83.0342 371.274C83.4469 370.862 84.2283 370.48 85.76 370.48V366.48ZM78.24 374V403.44H82.24V374H78.24ZM78.24 403.44C78.24 405.247 78.7621 406.904 79.9704 408.205L82.9016 405.483C82.5153 405.067 82.24 404.455 82.24 403.44H78.24ZM80.0751 408.31C81.3764 409.518 83.0333 410.04 84.84 410.04V406.04C83.8253 406.04 83.2129 405.765 82.7969 405.378L80.0751 408.31ZM84.84 410.04C91.9214 410.04 98.3971 409.886 104.265 409.577L104.055 405.583C98.2695 405.887 91.8652 406.04 84.84 406.04V410.04ZM106.16 407.58V394.24H102.16V407.58H106.16ZM104.16 392.24H92.2V396.24H104.16V392.24ZM94.2 394.24V383.2H90.2V394.24H94.2ZM92.2 385.2H120.72V381.2H92.2V385.2ZM118.72 383.2V418.62H122.72V383.2H118.72ZM162.598 405.74L163.17 407.656L164.598 407.23V405.74H162.598ZM162.598 371.24V369.24H160.598V371.24H162.598ZM178.698 371.24H180.698V369.24H178.698V371.24ZM178.698 420V422H180.698V420H178.698ZM164.438 420L162.477 420.392L162.798 422H164.438V420ZM163.518 415.4L165.479 415.008L164.897 412.095L162.417 413.73L163.518 415.4ZM154.594 419.632L155.143 421.555L155.156 421.551L155.169 421.548L154.594 419.632ZM132.79 417.148L134.204 415.734L134.204 415.734L132.79 417.148ZM129.018 371.24V369.24H127.018V371.24H129.018ZM145.118 371.24H147.118V369.24H145.118V371.24ZM146.038 406.66L147.452 405.246L147.452 405.246L146.038 406.66ZM151.558 409.58C155.053 409.58 158.931 408.922 163.17 407.656L162.026 403.824C158.047 405.011 154.564 405.58 151.558 405.58V409.58ZM164.598 405.74V371.24H160.598V405.74H164.598ZM162.598 373.24H178.698V369.24H162.598V373.24ZM176.698 371.24V420H180.698V371.24H176.698ZM178.698 418H164.438V422H178.698V418ZM166.399 419.608L165.479 415.008L161.557 415.792L162.477 420.392L166.399 419.608ZM162.417 413.73C159.684 415.533 156.885 416.857 154.019 417.716L155.169 421.548C158.436 420.567 161.587 419.07 164.619 417.07L162.417 413.73ZM154.045 417.709C151.138 418.539 148.79 418.92 146.958 418.92V422.92C149.297 422.92 152.039 422.442 155.143 421.555L154.045 417.709ZM146.958 418.92H142.818V422.92H146.958V418.92ZM142.818 418.92C139.079 418.92 136.279 417.809 134.204 415.734L131.376 418.562C134.33 421.516 138.216 422.92 142.818 422.92V418.92ZM134.204 415.734C132.129 413.659 131.018 410.859 131.018 407.12H127.018C127.018 411.722 128.422 415.608 131.376 418.562L134.204 415.734ZM131.018 407.12V371.24H127.018V407.12H131.018ZM129.018 373.24H145.118V369.24H129.018V373.24ZM143.118 371.24V404.36H147.118V371.24H143.118ZM143.118 404.36C143.118 405.775 143.611 407.061 144.624 408.074L147.452 405.246C147.238 405.032 147.118 404.785 147.118 404.36H143.118ZM144.624 408.074C145.637 409.087 146.923 409.58 148.338 409.58V405.58C147.913 405.58 147.666 405.46 147.452 405.246L144.624 408.074ZM148.338 409.58H151.558V405.58H148.338V409.58ZM208.106 373.08H210.106V371.08H208.106V373.08ZM208.106 420V422H210.106V420H208.106ZM192.006 420H190.006V422H192.006V420ZM192.006 385.5H194.006V383.5H192.006V385.5ZM185.106 385.5H183.106V387.5H185.106V385.5ZM185.106 373.08V371.08H183.106V373.08H185.106ZM192.006 354.68V352.68H190.006V354.68H192.006ZM208.106 354.68H210.106V352.68H208.106V354.68ZM208.106 367.56V369.56H210.106V367.56H208.106ZM192.006 367.56H190.006V369.56H192.006V367.56ZM206.106 373.08V420H210.106V373.08H206.106ZM208.106 418H192.006V422H208.106V418ZM194.006 420V385.5H190.006V420H194.006ZM192.006 383.5H185.106V387.5H192.006V383.5ZM187.106 385.5V373.08H183.106V385.5H187.106ZM185.106 375.08H208.106V371.08H185.106V375.08ZM192.006 356.68H208.106V352.68H192.006V356.68ZM206.106 354.68V367.56H210.106V354.68H206.106ZM208.106 365.56H192.006V369.56H208.106V365.56ZM194.006 367.56V354.68H190.006V367.56H194.006ZM251.834 420L249.873 420.392L250.195 422H251.834V420ZM250.914 415.4L252.876 415.008L252.293 412.095L249.813 413.73L250.914 415.4ZM241.99 419.632L242.54 421.555L242.552 421.551L242.565 421.548L241.99 419.632ZM220.186 417.148L218.772 418.562L218.772 418.562L220.186 417.148ZM220.278 375.196L221.693 376.61L221.693 376.61L220.278 375.196ZM249.994 371.24V373.24H251.994V371.24H249.994ZM249.994 355.6V353.6H247.994V355.6H249.994ZM266.094 355.6H268.094V353.6H266.094V355.6ZM266.094 420V422H268.094V420H266.094ZM249.994 405.74L250.566 407.656L251.994 407.23V405.74H249.994ZM249.994 383.66H251.994V381.66H249.994V383.66ZM233.434 406.66L234.849 405.246L234.849 405.246L233.434 406.66ZM253.796 419.608L252.876 415.008L248.953 415.792L249.873 420.392L253.796 419.608ZM249.813 413.73C247.08 415.533 244.282 416.857 241.416 417.716L242.565 421.548C245.832 420.567 248.983 419.07 252.016 417.07L249.813 413.73ZM241.441 417.709C238.535 418.539 236.186 418.92 234.354 418.92V422.92C236.693 422.92 239.435 422.442 242.54 421.555L241.441 417.709ZM234.354 418.92H230.214V422.92H234.354V418.92ZM230.214 418.92C226.475 418.92 223.676 417.809 221.601 415.734L218.772 418.562C221.726 421.516 225.612 422.92 230.214 422.92V418.92ZM221.601 415.734C219.526 413.659 218.414 410.859 218.414 407.12H214.414C214.414 411.722 215.818 415.608 218.772 418.562L221.601 415.734ZM218.414 407.12V385.96H214.414V407.12H218.414ZM218.414 385.96C218.414 381.744 219.584 378.719 221.693 376.61L218.864 373.782C215.821 376.825 214.414 380.976 214.414 385.96H218.414ZM221.693 376.61C223.871 374.432 226.934 373.24 231.134 373.24V369.24C226.135 369.24 221.96 370.686 218.864 373.782L221.693 376.61ZM231.134 373.24H249.994V369.24H231.134V373.24ZM251.994 371.24V355.6H247.994V371.24H251.994ZM249.994 357.6H266.094V353.6H249.994V357.6ZM264.094 355.6V420H268.094V355.6H264.094ZM266.094 418H251.834V422H266.094V418ZM238.954 409.58C242.449 409.58 246.327 408.922 250.566 407.656L249.422 403.824C245.443 405.011 241.961 405.58 238.954 405.58V409.58ZM251.994 405.74V383.66H247.994V405.74H251.994ZM249.994 381.66H236.194V385.66H249.994V381.66ZM236.194 381.66C234.659 381.66 233.141 382.045 232.02 383.166C230.899 384.286 230.514 385.805 230.514 387.34H234.514C234.514 386.422 234.743 386.1 234.849 385.994C234.955 385.888 235.276 385.66 236.194 385.66V381.66ZM230.514 387.34V404.36H234.514V387.34H230.514ZM230.514 404.36C230.514 405.775 231.007 407.061 232.02 408.074L234.849 405.246C234.635 405.032 234.514 404.785 234.514 404.36H230.514ZM232.02 408.074C233.033 409.087 234.32 409.58 235.734 409.58V405.58C235.309 405.58 235.062 405.46 234.849 405.246L232.02 408.074ZM235.734 409.58H238.954V405.58H235.734V409.58ZM290.464 390.56H288.464V392.56H290.464V390.56ZM306.104 390.56V392.56H308.104V390.56H306.104ZM320.364 419.08L320.57 421.069L322.364 420.883V419.08H320.364ZM278.136 417.148L276.721 418.562L276.721 418.562L278.136 417.148ZM278.228 374.276L279.642 375.69L279.642 375.69L278.228 374.276ZM318.248 374.276L316.817 375.673L316.833 375.69L316.85 375.707L318.248 374.276ZM322.204 402.06V404.06H324.204V402.06H322.204ZM290.464 402.06V400.06H288.464V402.06H290.464ZM291.384 408.04L292.798 406.626L292.798 406.626L291.384 408.04ZM320.364 407.58H322.364V405.417L320.207 405.586L320.364 407.58ZM294.144 379.82C292.609 379.82 291.09 380.205 289.969 381.326C288.849 382.446 288.464 383.965 288.464 385.5H292.464C292.464 384.582 292.692 384.26 292.798 384.154C292.904 384.048 293.225 383.82 294.144 383.82V379.82ZM288.464 385.5V390.56H292.464V385.5H288.464ZM290.464 392.56H306.104V388.56H290.464V392.56ZM308.104 390.56V385.5H304.104V390.56H308.104ZM308.104 385.5C308.104 383.965 307.719 382.446 306.598 381.326C305.477 380.205 303.959 379.82 302.424 379.82V383.82C303.342 383.82 303.663 384.048 303.769 384.154C303.875 384.26 304.104 384.582 304.104 385.5H308.104ZM302.424 379.82H294.144V383.82H302.424V379.82ZM320.157 417.091C308.373 418.312 297.71 418.92 288.164 418.92V422.92C297.876 422.92 308.679 422.302 320.57 421.069L320.157 417.091ZM288.164 418.92C284.425 418.92 281.625 417.809 279.55 415.734L276.721 418.562C279.676 421.516 283.561 422.92 288.164 422.92V418.92ZM279.55 415.734C277.475 413.659 276.364 410.859 276.364 407.12H272.364C272.364 411.722 273.767 415.608 276.721 418.562L279.55 415.734ZM276.364 407.12V385.04H272.364V407.12H276.364ZM276.364 385.04C276.364 380.824 277.533 377.799 279.642 375.69L276.813 372.862C273.77 375.905 272.364 380.056 272.364 385.04H276.364ZM279.642 375.69C281.82 373.512 284.883 372.32 289.084 372.32V368.32C284.084 368.32 279.909 369.766 276.813 372.862L279.642 375.69ZM289.084 372.32H307.484V368.32H289.084V372.32ZM307.484 372.32C311.687 372.32 314.706 373.512 316.817 375.673L319.678 372.879C316.637 369.765 312.481 368.32 307.484 368.32V372.32ZM316.85 375.707C319.011 377.818 320.204 380.837 320.204 385.04H324.204C324.204 380.043 322.758 375.886 319.645 372.845L316.85 375.707ZM320.204 385.04V402.06H324.204V385.04H320.204ZM322.204 400.06H290.464V404.06H322.204V400.06ZM288.464 402.06V405.74H292.464V402.06H288.464ZM288.464 405.74C288.464 407.155 288.956 408.441 289.969 409.454L292.798 406.626C292.584 406.412 292.464 406.165 292.464 405.74H288.464ZM289.969 409.454C290.982 410.467 292.269 410.96 293.684 410.96V406.96C293.258 406.96 293.012 406.84 292.798 406.626L289.969 409.454ZM293.684 410.96C299.836 410.96 308.792 410.495 320.52 409.574L320.207 405.586C308.506 406.505 299.675 406.96 293.684 406.96V410.96ZM318.364 407.58V419.08H322.364V407.58H318.364Z" fill="#3D8F40"/>
<g clip-path="url(#clip0)">
<path d="M561.466 108.396C481.695 108.38 417.016 175.941 417 259.3C416.99 313.752 445.047 363.989 490.421 390.761C491.807 391.596 493.458 391.809 494.997 391.353C496.526 390.907 497.824 389.849 498.609 388.408L543.163 306.127C544.797 303.104 543.778 299.268 540.887 297.558C520.593 285.647 513.382 258.799 524.78 237.592C536.179 216.385 561.871 208.849 582.165 220.761C602.459 232.673 609.67 259.52 598.272 280.727C594.483 287.776 588.91 293.599 582.165 297.558C579.273 299.268 578.255 303.104 579.889 306.127L624.322 388.408C625.106 389.853 626.404 390.917 627.935 391.365C628.459 391.524 629.002 391.605 629.548 391.604C630.587 391.603 631.608 391.321 632.511 390.786C701.986 349.825 726.532 257.765 687.334 185.164C661.713 137.71 613.606 108.369 561.466 108.396Z" fill="#4CAF50"/>
</g>
<defs>
<clipPath id="clip0">
<rect width="289" height="302" fill="white" transform="translate(417 99)"/>
</clipPath>
</defs>
</svg>
