<svg width="800" height="500" viewBox="0 0 800 500" fill="none" xmlns="http://www.w3.org/2000/svg">
<rect width="800" height="500" fill="#ECCA98"/>
<path d="M115.074 91.5098H95.0391V146H81.5625V91.5098H61.7969V80.5938H115.074V91.5098ZM140.275 146.898C133.148 146.898 127.338 144.712 122.846 140.34C118.383 135.967 116.152 130.143 116.152 122.865V121.607C116.152 116.726 117.096 112.368 118.982 108.535C120.869 104.672 123.535 101.707 126.979 99.6406C130.452 97.5443 134.406 96.4961 138.838 96.4961C145.486 96.4961 150.712 98.5924 154.516 102.785C158.349 106.978 160.266 112.923 160.266 120.619V125.92H129.314C129.734 129.094 130.992 131.64 133.088 133.557C135.214 135.473 137.895 136.432 141.129 136.432C146.13 136.432 150.038 134.62 152.854 130.996L159.232 138.139C157.286 140.894 154.65 143.05 151.326 144.607C148.002 146.135 144.318 146.898 140.275 146.898ZM138.793 107.008C136.217 107.008 134.121 107.876 132.504 109.613C130.917 111.35 129.898 113.836 129.449 117.07H147.508V116.037C147.448 113.162 146.669 110.946 145.172 109.389C143.674 107.801 141.548 107.008 138.793 107.008ZM194.002 132.568C194.002 130.981 193.208 129.738 191.621 128.84C190.064 127.911 187.548 127.088 184.074 126.369C172.514 123.943 166.734 119.032 166.734 111.635C166.734 107.322 168.516 103.729 172.08 100.854C175.674 97.9486 180.361 96.4961 186.141 96.4961C192.31 96.4961 197.236 97.9486 200.92 100.854C204.633 103.758 206.49 107.532 206.49 112.174H193.508C193.508 110.317 192.909 108.79 191.711 107.592C190.513 106.364 188.641 105.75 186.096 105.75C183.91 105.75 182.217 106.244 181.02 107.232C179.822 108.221 179.223 109.479 179.223 111.006C179.223 112.443 179.896 113.611 181.244 114.51C182.622 115.378 184.928 116.142 188.162 116.801C191.396 117.43 194.122 118.148 196.338 118.957C203.196 121.473 206.625 125.83 206.625 132.029C206.625 136.462 204.723 140.055 200.92 142.811C197.117 145.536 192.205 146.898 186.186 146.898C182.113 146.898 178.489 146.18 175.314 144.742C172.17 143.275 169.699 141.283 167.902 138.768C166.105 136.222 165.207 133.482 165.207 130.547H177.516C177.635 132.853 178.489 134.62 180.076 135.848C181.663 137.076 183.79 137.689 186.455 137.689C188.941 137.689 190.812 137.225 192.07 136.297C193.358 135.339 194.002 134.096 194.002 132.568ZM230.568 85.4453V97.3945H238.879V106.918H230.568V131.176C230.568 132.973 230.913 134.26 231.602 135.039C232.29 135.818 233.608 136.207 235.555 136.207C236.992 136.207 238.265 136.102 239.373 135.893V145.73C236.827 146.509 234.207 146.898 231.512 146.898C222.408 146.898 217.766 142.301 217.586 133.107V106.918H210.488V97.3945H217.586V85.4453H230.568ZM65.8398 280V214.594H85.9648C91.7148 214.594 96.8509 215.896 101.373 218.502C105.925 221.077 109.474 224.761 112.02 229.553C114.565 234.314 115.838 239.735 115.838 245.814V248.824C115.838 254.904 114.58 260.309 112.064 265.041C109.579 269.773 106.06 273.441 101.508 276.047C96.9557 278.652 91.8197 279.97 86.0996 280H65.8398ZM79.3164 225.51V269.174H85.8301C91.1009 269.174 95.1289 267.452 97.9141 264.008C100.699 260.564 102.122 255.637 102.182 249.229V245.77C102.182 239.121 100.804 234.09 98.0488 230.676C95.2936 227.232 91.2656 225.51 85.9648 225.51H79.3164ZM152.135 243.568C150.368 243.329 148.811 243.209 147.463 243.209C142.551 243.209 139.332 244.871 137.805 248.195V280H124.822V231.395H137.086L137.445 237.189C140.051 232.727 143.66 230.496 148.271 230.496C149.709 230.496 151.057 230.691 152.314 231.08L152.135 243.568ZM172.125 280H159.098V231.395H172.125V280ZM158.334 218.816C158.334 216.87 158.978 215.268 160.266 214.01C161.583 212.752 163.365 212.123 165.611 212.123C167.827 212.123 169.594 212.752 170.912 214.01C172.23 215.268 172.889 216.87 172.889 218.816C172.889 220.793 172.215 222.41 170.867 223.668C169.549 224.926 167.798 225.555 165.611 225.555C163.425 225.555 161.658 224.926 160.311 223.668C158.993 222.41 158.334 220.793 158.334 218.816ZM201.055 264.143L210.084 231.395H223.65L207.254 280H194.855L178.459 231.395H192.025L201.055 264.143ZM251.143 280.898C244.015 280.898 238.205 278.712 233.713 274.34C229.251 269.967 227.02 264.143 227.02 256.865V255.607C227.02 250.726 227.963 246.368 229.85 242.535C231.736 238.672 234.402 235.707 237.846 233.641C241.32 231.544 245.273 230.496 249.705 230.496C256.354 230.496 261.579 232.592 265.383 236.785C269.216 240.978 271.133 246.923 271.133 254.619V259.92H240.182C240.601 263.094 241.859 265.64 243.955 267.557C246.081 269.473 248.762 270.432 251.996 270.432C256.997 270.432 260.906 268.62 263.721 264.996L270.1 272.139C268.153 274.894 265.518 277.05 262.193 278.607C258.869 280.135 255.186 280.898 251.143 280.898ZM249.66 241.008C247.085 241.008 244.988 241.876 243.371 243.613C241.784 245.35 240.766 247.836 240.316 251.07H258.375V250.037C258.315 247.162 257.536 244.946 256.039 243.389C254.542 241.801 252.415 241.008 249.66 241.008ZM290.494 231.395L290.898 237.01C294.372 232.667 299.029 230.496 304.869 230.496C310.02 230.496 313.854 232.008 316.369 235.033C318.885 238.058 320.173 242.58 320.232 248.6V280H307.25V248.914C307.25 246.159 306.651 244.167 305.453 242.939C304.255 241.682 302.264 241.053 299.479 241.053C295.825 241.053 293.085 242.61 291.258 245.725V280H278.275V231.395H290.494ZM65.8398 414V348.594H85.9648C91.7148 348.594 96.8509 349.896 101.373 352.502C105.925 355.077 109.474 358.761 112.02 363.553C114.565 368.314 115.838 373.735 115.838 379.814V382.824C115.838 388.904 114.58 394.309 112.064 399.041C109.579 403.773 106.06 407.441 101.508 410.047C96.9557 412.652 91.8197 413.97 86.0996 414H65.8398ZM79.3164 359.51V403.174H85.8301C91.1009 403.174 95.1289 401.452 97.9141 398.008C100.699 394.564 102.122 389.637 102.182 383.229V379.77C102.182 373.121 100.804 368.09 98.0488 364.676C95.2936 361.232 91.2656 359.51 85.9648 359.51H79.3164ZM147.193 414.898C140.066 414.898 134.256 412.712 129.764 408.34C125.301 403.967 123.07 398.143 123.07 390.865V389.607C123.07 384.726 124.014 380.368 125.9 376.535C127.787 372.672 130.452 369.707 133.896 367.641C137.37 365.544 141.324 364.496 145.756 364.496C152.404 364.496 157.63 366.592 161.434 370.785C165.267 374.978 167.184 380.923 167.184 388.619V393.92H136.232C136.652 397.094 137.91 399.64 140.006 401.557C142.132 403.473 144.812 404.432 148.047 404.432C153.048 404.432 156.956 402.62 159.771 398.996L166.15 406.139C164.204 408.894 161.568 411.05 158.244 412.607C154.92 414.135 151.236 414.898 147.193 414.898ZM145.711 375.008C143.135 375.008 141.039 375.876 139.422 377.613C137.835 379.35 136.816 381.836 136.367 385.07H154.426V384.037C154.366 381.162 153.587 378.946 152.09 377.389C150.592 375.801 148.466 375.008 145.711 375.008ZM192.16 398.143L201.189 365.395H214.756L198.359 414H185.961L169.564 365.395H183.131L192.16 398.143ZM242.248 414.898C235.12 414.898 229.311 412.712 224.818 408.34C220.356 403.967 218.125 398.143 218.125 390.865V389.607C218.125 384.726 219.068 380.368 220.955 376.535C222.842 372.672 225.507 369.707 228.951 367.641C232.425 365.544 236.378 364.496 240.811 364.496C247.459 364.496 252.685 366.592 256.488 370.785C260.322 374.978 262.238 380.923 262.238 388.619V393.92H231.287C231.706 397.094 232.964 399.64 235.061 401.557C237.187 403.473 239.867 404.432 243.102 404.432C248.103 404.432 252.011 402.62 254.826 398.996L261.205 406.139C259.258 408.894 256.623 411.05 253.299 412.607C249.975 414.135 246.291 414.898 242.248 414.898ZM240.766 375.008C238.19 375.008 236.094 375.876 234.477 377.613C232.889 379.35 231.871 381.836 231.422 385.07H249.48V384.037C249.421 381.162 248.642 378.946 247.145 377.389C245.647 375.801 243.521 375.008 240.766 375.008ZM283.352 414H270.324V345H283.352V414ZM292.066 389.248C292.066 384.426 292.995 380.129 294.852 376.355C296.708 372.582 299.374 369.662 302.848 367.596C306.352 365.529 310.41 364.496 315.021 364.496C321.58 364.496 326.926 366.503 331.059 370.516C335.221 374.529 337.542 379.979 338.021 386.867L338.111 390.191C338.111 397.648 336.03 403.638 331.867 408.16C327.704 412.652 322.119 414.898 315.111 414.898C308.104 414.898 302.503 412.652 298.311 408.16C294.148 403.668 292.066 397.559 292.066 389.832V389.248ZM305.049 390.191C305.049 394.803 305.917 398.337 307.654 400.793C309.391 403.219 311.877 404.432 315.111 404.432C318.256 404.432 320.712 403.234 322.479 400.838C324.245 398.412 325.129 394.549 325.129 389.248C325.129 384.726 324.245 381.222 322.479 378.736C320.712 376.251 318.226 375.008 315.021 375.008C311.847 375.008 309.391 376.251 307.654 378.736C305.917 381.192 305.049 385.01 305.049 390.191ZM389.861 390.146C389.861 397.633 388.154 403.638 384.74 408.16C381.356 412.652 376.774 414.898 370.994 414.898C366.083 414.898 362.115 413.191 359.09 409.777V432.688H346.107V365.395H358.146L358.596 370.156C361.74 366.383 365.843 364.496 370.904 364.496C376.894 364.496 381.551 366.712 384.875 371.145C388.199 375.577 389.861 381.686 389.861 389.473V390.146ZM376.879 389.203C376.879 384.681 376.07 381.192 374.453 378.736C372.866 376.281 370.545 375.053 367.49 375.053C363.417 375.053 360.617 376.61 359.09 379.725V399.625C360.677 402.829 363.507 404.432 367.58 404.432C373.779 404.432 376.879 399.355 376.879 389.203ZM410.121 365.395L410.525 370.83C413.969 366.607 418.626 364.496 424.496 364.496C430.755 364.496 435.053 366.967 437.389 371.908C440.803 366.967 445.669 364.496 451.988 364.496C457.259 364.496 461.182 366.038 463.758 369.123C466.333 372.178 467.621 376.79 467.621 382.959V414H454.594V383.004C454.594 380.249 454.055 378.242 452.977 376.984C451.898 375.697 449.997 375.053 447.271 375.053C443.378 375.053 440.683 376.91 439.186 380.623L439.23 414H426.248V383.049C426.248 380.234 425.694 378.197 424.586 376.939C423.478 375.682 421.591 375.053 418.926 375.053C415.242 375.053 412.577 376.58 410.93 379.635V414H397.947V365.395H410.121ZM500.01 414.898C492.882 414.898 487.072 412.712 482.58 408.34C478.118 403.967 475.887 398.143 475.887 390.865V389.607C475.887 384.726 476.83 380.368 478.717 376.535C480.604 372.672 483.269 369.707 486.713 367.641C490.187 365.544 494.14 364.496 498.572 364.496C505.221 364.496 510.447 366.592 514.25 370.785C518.083 374.978 520 380.923 520 388.619V393.92H489.049C489.468 397.094 490.726 399.64 492.822 401.557C494.949 403.473 497.629 404.432 500.863 404.432C505.865 404.432 509.773 402.62 512.588 398.996L518.967 406.139C517.02 408.894 514.385 411.05 511.061 412.607C507.736 414.135 504.053 414.898 500.01 414.898ZM498.527 375.008C495.952 375.008 493.855 375.876 492.238 377.613C490.651 379.35 489.633 381.836 489.184 385.07H507.242V384.037C507.182 381.162 506.404 378.946 504.906 377.389C503.409 375.801 501.283 375.008 498.527 375.008ZM539.361 365.395L539.766 371.01C543.24 366.667 547.896 364.496 553.736 364.496C558.887 364.496 562.721 366.008 565.236 369.033C567.752 372.058 569.04 376.58 569.1 382.6V414H556.117V382.914C556.117 380.159 555.518 378.167 554.32 376.939C553.122 375.682 551.131 375.053 548.346 375.053C544.692 375.053 541.952 376.61 540.125 379.725V414H527.143V365.395H539.361ZM594.525 353.445V365.395H602.836V374.918H594.525V399.176C594.525 400.973 594.87 402.26 595.559 403.039C596.247 403.818 597.565 404.207 599.512 404.207C600.949 404.207 602.222 404.102 603.33 403.893V413.73C600.785 414.509 598.164 414.898 595.469 414.898C586.365 414.898 581.723 410.301 581.543 401.107V374.918H574.445V365.395H581.543V353.445H594.525Z" fill="white"/>
<path d="M115.074 91.5098V93.5098H117.074V91.5098H115.074ZM95.0391 91.5098V89.5098H93.0391V91.5098H95.0391ZM95.0391 146V148H97.0391V146H95.0391ZM81.5625 146H79.5625V148H81.5625V146ZM81.5625 91.5098H83.5625V89.5098H81.5625V91.5098ZM61.7969 91.5098H59.7969V93.5098H61.7969V91.5098ZM61.7969 80.5938V78.5938H59.7969V80.5938H61.7969ZM115.074 80.5938H117.074V78.5938H115.074V80.5938ZM115.074 89.5098H95.0391V93.5098H115.074V89.5098ZM93.0391 91.5098V146H97.0391V91.5098H93.0391ZM95.0391 144H81.5625V148H95.0391V144ZM83.5625 146V91.5098H79.5625V146H83.5625ZM81.5625 89.5098H61.7969V93.5098H81.5625V89.5098ZM63.7969 91.5098V80.5938H59.7969V91.5098H63.7969ZM61.7969 82.5938H115.074V78.5938H61.7969V82.5938ZM113.074 80.5938V91.5098H117.074V80.5938H113.074ZM122.846 140.34L121.446 141.768L121.451 141.773L122.846 140.34ZM118.982 108.535L120.777 109.418L120.78 109.413L118.982 108.535ZM126.979 99.6406L128.008 101.356L128.012 101.353L126.979 99.6406ZM154.516 102.785L153.034 104.129L153.04 104.135L154.516 102.785ZM160.266 125.92V127.92H162.266V125.92H160.266ZM129.314 125.92V123.92H127.033L127.332 126.182L129.314 125.92ZM133.088 133.557L131.738 135.033L131.749 135.042L133.088 133.557ZM152.854 130.996L154.345 129.664L152.747 127.874L151.274 129.769L152.854 130.996ZM159.232 138.139L160.866 139.293L161.784 137.993L160.724 136.806L159.232 138.139ZM151.326 144.607L152.161 146.425L152.168 146.422L152.175 146.419L151.326 144.607ZM132.504 109.613L131.04 108.25L131.034 108.257L131.027 108.264L132.504 109.613ZM129.449 117.07L127.468 116.795L127.152 119.07H129.449V117.07ZM147.508 117.07V119.07H149.508V117.07H147.508ZM147.508 116.037H149.508V116.016L149.507 115.995L147.508 116.037ZM145.172 109.389L143.717 110.761L143.724 110.768L143.73 110.775L145.172 109.389ZM140.275 144.898C133.592 144.898 128.307 142.865 124.241 138.907L121.451 141.773C126.368 146.559 132.704 148.898 140.275 148.898V144.898ZM124.245 138.911C120.231 134.977 118.152 129.701 118.152 122.865H114.152C114.152 130.584 116.536 136.958 121.446 141.768L124.245 138.911ZM118.152 122.865V121.607H114.152V122.865H118.152ZM118.152 121.607C118.152 116.988 119.043 112.94 120.777 109.418L117.188 107.652C115.148 111.797 114.152 116.463 114.152 121.607H118.152ZM120.78 109.413C122.509 105.871 124.919 103.209 128.008 101.356L125.95 97.9256C122.15 100.205 119.229 103.472 117.185 107.657L120.78 109.413ZM128.012 101.353C131.145 99.462 134.735 98.4961 138.838 98.4961V94.4961C134.076 94.4961 129.759 95.6265 125.945 97.9282L128.012 101.353ZM138.838 98.4961C145.03 98.4961 149.677 100.428 153.034 104.129L155.997 101.441C151.748 96.7571 145.943 94.4961 138.838 94.4961V98.4961ZM153.04 104.135C156.432 107.845 158.266 113.242 158.266 120.619H162.266C162.266 112.603 160.266 106.111 155.992 101.436L153.04 104.135ZM158.266 120.619V125.92H162.266V120.619H158.266ZM160.266 123.92H129.314V127.92H160.266V123.92ZM127.332 126.182C127.804 129.76 129.25 132.758 131.738 135.033L134.437 132.081C132.733 130.522 131.663 128.429 131.297 125.658L127.332 126.182ZM131.749 135.042C134.291 137.333 137.469 138.432 141.129 138.432V134.432C138.32 134.432 136.138 133.613 134.427 132.071L131.749 135.042ZM141.129 138.432C146.684 138.432 151.201 136.383 154.433 132.223L151.274 129.769C148.875 132.857 145.576 134.432 141.129 134.432V138.432ZM151.362 132.328L157.741 139.471L160.724 136.806L154.345 129.664L151.362 132.328ZM157.599 136.985C155.87 139.432 153.516 141.373 150.478 142.796L152.175 146.419C155.785 144.727 158.702 142.356 160.866 139.293L157.599 136.985ZM150.491 142.79C147.455 144.185 144.061 144.898 140.275 144.898V148.898C144.576 148.898 148.549 148.085 152.161 146.425L150.491 142.79ZM138.793 105.008C135.715 105.008 133.07 106.07 131.04 108.25L133.968 110.976C135.172 109.683 136.72 109.008 138.793 109.008V105.008ZM131.027 108.264C129.08 110.395 127.952 113.311 127.468 116.795L131.43 117.345C131.845 114.361 132.753 112.305 133.98 110.962L131.027 108.264ZM129.449 119.07H147.508V115.07H129.449V119.07ZM149.508 117.07V116.037H145.508V117.07H149.508ZM149.507 115.995C149.441 112.788 148.561 110.028 146.614 108.002L143.73 110.775C144.777 111.864 145.455 113.536 145.508 116.079L149.507 115.995ZM146.627 108.016C144.658 105.929 141.945 105.008 138.793 105.008V109.008C141.151 109.008 142.691 109.674 143.717 110.761L146.627 108.016ZM191.621 128.84L190.597 130.558L190.616 130.569L190.636 130.58L191.621 128.84ZM184.074 126.369L183.663 128.327L183.669 128.328L184.074 126.369ZM172.08 100.854L173.336 102.41L173.337 102.409L172.08 100.854ZM200.92 100.854L199.681 102.424L199.688 102.429L200.92 100.854ZM206.49 112.174V114.174H208.49V112.174H206.49ZM193.508 112.174H191.508V114.174H193.508V112.174ZM191.711 107.592L190.279 108.988L190.288 108.997L190.297 109.006L191.711 107.592ZM181.244 114.51L180.135 116.174L180.156 116.188L180.178 116.202L181.244 114.51ZM188.162 116.801L187.763 118.761L187.772 118.762L187.78 118.764L188.162 116.801ZM196.338 118.957L197.027 117.079L197.023 117.078L196.338 118.957ZM200.92 142.811L202.085 144.436L202.093 144.43L200.92 142.811ZM175.314 144.742L174.469 146.555L174.479 146.559L174.489 146.564L175.314 144.742ZM167.902 138.768L166.268 139.921L166.275 139.93L167.902 138.768ZM165.207 130.547V128.547H163.207V130.547H165.207ZM177.516 130.547L179.513 130.443L179.414 128.547H177.516V130.547ZM192.07 136.297L193.258 137.906L193.264 137.901L192.07 136.297ZM196.002 132.568C196.002 130.14 194.708 128.289 192.606 127.099L190.636 130.58C191.708 131.187 192.002 131.822 192.002 132.568H196.002ZM192.645 127.122C190.791 126.016 188.004 125.14 184.479 124.411L183.669 128.328C187.092 129.036 189.337 129.807 190.597 130.558L192.645 127.122ZM184.485 124.412C178.866 123.233 174.897 121.494 172.364 119.342C169.909 117.255 168.734 114.73 168.734 111.635H164.734C164.734 115.937 166.45 119.566 169.774 122.39C173.022 125.15 177.722 127.08 183.663 128.327L184.485 124.412ZM168.734 111.635C168.734 107.969 170.209 104.932 173.336 102.41L170.824 99.2969C166.823 102.525 164.734 106.676 164.734 111.635H168.734ZM173.337 102.409C176.493 99.8577 180.701 98.4961 186.141 98.4961V94.4961C180.021 94.4961 174.854 96.0394 170.823 99.2981L173.337 102.409ZM186.141 98.4961C192.003 98.4961 196.448 99.8741 199.681 102.424L202.158 99.2831C198.025 96.0231 192.617 94.4961 186.141 94.4961V98.4961ZM199.688 102.429C202.926 104.962 204.49 108.158 204.49 112.174H208.49C208.49 106.905 206.341 102.555 202.152 99.2782L199.688 102.429ZM206.49 110.174H193.508V114.174H206.49V110.174ZM195.508 112.174C195.508 109.843 194.736 107.788 193.125 106.178L190.297 109.006C191.082 109.791 191.508 110.791 191.508 112.174H195.508ZM193.143 106.195C191.419 104.428 188.92 103.75 186.096 103.75V107.75C188.362 107.75 189.607 108.299 190.279 108.988L193.143 106.195ZM186.096 103.75C183.632 103.75 181.424 104.306 179.747 105.69L182.292 108.775C183.01 108.183 184.187 107.75 186.096 107.75V103.75ZM179.747 105.69C178.097 107.051 177.223 108.87 177.223 111.006H181.223C181.223 110.087 181.546 109.391 182.292 108.775L179.747 105.69ZM177.223 111.006C177.223 113.206 178.313 114.96 180.135 116.174L182.354 112.846C181.48 112.263 181.223 111.681 181.223 111.006H177.223ZM180.178 116.202C181.877 117.273 184.484 118.093 187.763 118.761L188.561 114.841C185.372 114.191 183.366 113.483 182.311 112.818L180.178 116.202ZM187.78 118.764C190.949 119.38 193.565 120.074 195.652 120.836L197.023 117.078C194.678 116.223 191.844 115.479 188.544 114.838L187.78 118.764ZM195.649 120.835C198.838 122.004 201.058 123.54 202.482 125.349C203.886 127.133 204.625 129.322 204.625 132.029H208.625C208.625 128.537 207.65 125.448 205.625 122.875C203.619 120.326 200.696 118.425 197.027 117.079L195.649 120.835ZM204.625 132.029C204.625 135.777 203.067 138.786 199.747 141.191L202.093 144.43C206.38 141.325 208.625 137.146 208.625 132.029H204.625ZM199.755 141.185C196.377 143.605 191.907 144.898 186.186 144.898V148.898C192.503 148.898 197.856 147.466 202.085 144.436L199.755 141.185ZM186.186 144.898C182.35 144.898 179.015 144.222 176.139 142.92L174.489 146.564C177.963 148.137 181.876 148.898 186.186 148.898V144.898ZM176.16 142.93C173.289 141.59 171.103 139.807 169.53 137.605L166.275 139.93C168.296 142.759 171.051 144.96 174.469 146.555L176.16 142.93ZM169.536 137.614C167.962 135.384 167.207 133.043 167.207 130.547H163.207C163.207 133.921 164.249 137.06 166.268 139.921L169.536 137.614ZM165.207 132.547H177.516V128.547H165.207V132.547ZM175.518 130.651C175.663 133.441 176.732 135.79 178.852 137.43L181.3 134.266C180.245 133.45 179.608 132.265 179.513 130.443L175.518 130.651ZM178.852 137.43C180.89 139.006 183.492 139.689 186.455 139.689V135.689C184.088 135.689 182.437 135.145 181.3 134.266L178.852 137.43ZM186.455 139.689C189.135 139.689 191.507 139.199 193.258 137.906L190.883 134.688C190.118 135.252 188.747 135.689 186.455 135.689V139.689ZM193.264 137.901C195.029 136.588 196.002 134.765 196.002 132.568H192.002C192.002 133.427 191.687 134.089 190.876 134.692L193.264 137.901ZM230.568 85.4453H232.568V83.4453H230.568V85.4453ZM230.568 97.3945H228.568V99.3945H230.568V97.3945ZM238.879 97.3945H240.879V95.3945H238.879V97.3945ZM238.879 106.918V108.918H240.879V106.918H238.879ZM230.568 106.918V104.918H228.568V106.918H230.568ZM231.602 135.039L233.1 133.714L231.602 135.039ZM239.373 135.893H241.373V133.479L239.001 133.927L239.373 135.893ZM239.373 145.73L239.958 147.643L241.373 147.21V145.73H239.373ZM217.586 133.107H215.586V133.127L215.586 133.147L217.586 133.107ZM217.586 106.918H219.586V104.918H217.586V106.918ZM210.488 106.918H208.488V108.918H210.488V106.918ZM210.488 97.3945V95.3945H208.488V97.3945H210.488ZM217.586 97.3945V99.3945H219.586V97.3945H217.586ZM217.586 85.4453V83.4453H215.586V85.4453H217.586ZM228.568 85.4453V97.3945H232.568V85.4453H228.568ZM230.568 99.3945H238.879V95.3945H230.568V99.3945ZM236.879 97.3945V106.918H240.879V97.3945H236.879ZM238.879 104.918H230.568V108.918H238.879V104.918ZM228.568 106.918V131.176H232.568V106.918H228.568ZM228.568 131.176C228.568 133.136 228.927 135.034 230.104 136.364L233.1 133.714C232.899 133.487 232.568 132.81 232.568 131.176H228.568ZM230.104 136.364C231.395 137.824 233.492 138.207 235.555 138.207V134.207C233.725 134.207 233.186 133.811 233.1 133.714L230.104 136.364ZM235.555 138.207C237.085 138.207 238.486 138.096 239.745 137.858L239.001 133.927C238.044 134.109 236.9 134.207 235.555 134.207V138.207ZM237.373 135.893V145.73H241.373V135.893H237.373ZM238.788 143.818C236.434 144.538 234.011 144.898 231.512 144.898V148.898C234.403 148.898 237.221 148.48 239.958 147.643L238.788 143.818ZM231.512 144.898C227.276 144.898 224.429 143.832 222.609 142.03C220.786 140.224 219.669 137.359 219.586 133.068L215.586 133.147C215.682 138.05 216.976 142.08 219.795 144.872C222.617 147.667 226.643 148.898 231.512 148.898V144.898ZM219.586 133.107V106.918H215.586V133.107H219.586ZM217.586 104.918H210.488V108.918H217.586V104.918ZM212.488 106.918V97.3945H208.488V106.918H212.488ZM210.488 99.3945H217.586V95.3945H210.488V99.3945ZM219.586 97.3945V85.4453H215.586V97.3945H219.586ZM217.586 87.4453H230.568V83.4453H217.586V87.4453ZM65.8398 280H63.8398V282H65.8398V280ZM65.8398 214.594V212.594H63.8398V214.594H65.8398ZM101.373 218.502L100.375 220.235L100.381 220.239L100.388 220.243L101.373 218.502ZM112.02 229.553L110.253 230.491L110.256 230.496L112.02 229.553ZM112.064 265.041L110.298 264.102L110.294 264.111L112.064 265.041ZM86.0996 280L86.0996 282L86.1101 282L86.0996 280ZM79.3164 225.51V223.51H77.3164V225.51H79.3164ZM79.3164 269.174H77.3164V271.174H79.3164V269.174ZM102.182 249.229L104.182 249.247L104.182 249.238V249.229H102.182ZM98.0488 230.676L96.4871 231.925L96.4924 231.932L98.0488 230.676ZM67.8398 280V214.594H63.8398V280H67.8398ZM65.8398 216.594H85.9648V212.594H65.8398V216.594ZM85.9648 216.594C91.401 216.594 96.1863 217.822 100.375 220.235L102.371 216.769C97.5155 213.971 92.0287 212.594 85.9648 212.594V216.594ZM100.388 220.243C104.596 222.623 107.879 226.023 110.253 230.491L113.786 228.614C111.069 223.5 107.254 219.532 102.358 216.761L100.388 220.243ZM110.256 230.496C112.628 234.932 113.838 240.022 113.838 245.814H117.838C117.838 239.448 116.503 233.697 113.783 228.61L110.256 230.496ZM113.838 245.814V248.824H117.838V245.814H113.838ZM113.838 248.824C113.838 254.621 112.641 259.696 110.299 264.102L113.83 265.98C116.519 260.922 117.838 255.187 117.838 248.824H113.838ZM110.294 264.111C107.982 268.512 104.729 271.899 100.514 274.311L102.501 277.783C107.39 274.984 111.176 271.033 113.835 265.971L110.294 264.111ZM100.514 274.311C96.2883 276.73 91.4963 277.972 86.0891 278L86.1101 282C92.143 281.968 97.6231 280.575 102.501 277.783L100.514 274.311ZM86.0996 278H65.8398V282H86.0996V278ZM77.3164 225.51V269.174H81.3164V225.51H77.3164ZM79.3164 271.174H85.8301V267.174H79.3164V271.174ZM85.8301 271.174C91.5772 271.174 96.2308 269.27 99.4692 265.265L96.3589 262.75C94.0271 265.634 90.6246 267.174 85.8301 267.174V271.174ZM99.4692 265.265C102.641 261.344 104.119 255.912 104.182 249.247L100.182 249.21C100.124 255.363 98.7578 259.784 96.3589 262.75L99.4692 265.265ZM104.182 249.229V245.77H100.182V249.229H104.182ZM104.182 245.77C104.182 238.889 102.763 233.332 99.6052 229.42L96.4924 231.932C98.8455 234.848 100.182 239.353 100.182 245.77H104.182ZM99.6106 229.426C96.3982 225.411 91.737 223.51 85.9648 223.51V227.51C90.7943 227.51 94.1891 229.053 96.4871 231.925L99.6106 229.426ZM85.9648 223.51H79.3164V227.51H85.9648V223.51ZM152.135 243.568L151.866 245.55L154.102 245.853L154.135 243.597L152.135 243.568ZM137.805 248.195L135.987 247.36L135.805 247.758V248.195H137.805ZM137.805 280V282H139.805V280H137.805ZM124.822 280H122.822V282H124.822V280ZM124.822 231.395V229.395H122.822V231.395H124.822ZM137.086 231.395L139.082 231.271L138.966 229.395H137.086V231.395ZM137.445 237.189L135.449 237.313L135.856 243.877L139.172 238.198L137.445 237.189ZM152.314 231.08L154.314 231.109L154.336 229.612L152.906 229.17L152.314 231.08ZM152.403 241.586C150.574 241.338 148.924 241.209 147.463 241.209V245.209C148.697 245.209 150.162 245.319 151.866 245.55L152.403 241.586ZM147.463 241.209C142.087 241.209 137.955 243.077 135.987 247.36L139.622 249.03C140.709 246.665 143.016 245.209 147.463 245.209V241.209ZM135.805 248.195V280H139.805V248.195H135.805ZM137.805 278H124.822V282H137.805V278ZM126.822 280V231.395H122.822V280H126.822ZM124.822 233.395H137.086V229.395H124.822V233.395ZM135.09 231.518L135.449 237.313L139.441 237.066L139.082 231.271L135.09 231.518ZM139.172 238.198C141.471 234.261 144.468 232.496 148.271 232.496V228.496C142.851 228.496 138.63 231.194 135.718 236.181L139.172 238.198ZM148.271 232.496C149.527 232.496 150.674 232.666 151.723 232.991L152.906 229.17C151.44 228.716 149.891 228.496 148.271 228.496V232.496ZM150.315 231.051L150.135 243.54L154.135 243.597L154.314 231.109L150.315 231.051ZM172.125 280V282H174.125V280H172.125ZM159.098 280H157.098V282H159.098V280ZM159.098 231.395V229.395H157.098V231.395H159.098ZM172.125 231.395H174.125V229.395H172.125V231.395ZM160.266 214.01L158.885 212.563L158.876 212.571L158.868 212.579L160.266 214.01ZM170.867 223.668L169.503 222.206L169.494 222.214L169.486 222.221L170.867 223.668ZM160.311 223.668L158.93 225.115L158.938 225.122L158.946 225.13L160.311 223.668ZM172.125 278H159.098V282H172.125V278ZM161.098 280V231.395H157.098V280H161.098ZM159.098 233.395H172.125V229.395H159.098V233.395ZM170.125 231.395V280H174.125V231.395H170.125ZM160.334 218.816C160.334 217.36 160.794 216.289 161.663 215.441L158.868 212.579C157.162 214.246 156.334 216.38 156.334 218.816H160.334ZM161.647 215.456C162.51 214.632 163.753 214.123 165.611 214.123V210.123C162.977 210.123 160.657 210.872 158.885 212.563L161.647 215.456ZM165.611 214.123C167.431 214.123 168.663 214.628 169.531 215.456L172.293 212.563C170.526 210.876 168.224 210.123 165.611 210.123V214.123ZM169.531 215.456C170.424 216.309 170.889 217.375 170.889 218.816H174.889C174.889 216.365 174.035 214.226 172.293 212.563L169.531 215.456ZM170.889 218.816C170.889 220.283 170.413 221.356 169.503 222.206L172.232 225.13C174.016 223.464 174.889 221.303 174.889 218.816H170.889ZM169.486 222.221C168.613 223.055 167.393 223.555 165.611 223.555V227.555C168.202 227.555 170.486 226.797 172.248 225.115L169.486 222.221ZM165.611 223.555C163.832 223.555 162.585 223.055 161.675 222.206L158.946 225.13C160.731 226.796 163.019 227.555 165.611 227.555V223.555ZM161.691 222.221C160.805 221.375 160.334 220.298 160.334 218.816H156.334C156.334 221.288 157.181 223.445 158.93 225.115L161.691 222.221ZM201.055 264.143L199.127 264.674L201.055 271.667L202.983 264.674L201.055 264.143ZM210.084 231.395V229.395H208.561L208.156 230.863L210.084 231.395ZM223.65 231.395L225.545 232.034L226.436 229.395H223.65V231.395ZM207.254 280V282H208.69L209.149 280.639L207.254 280ZM194.855 280L192.96 280.639L193.419 282H194.855V280ZM178.459 231.395V229.395H175.674L176.564 232.034L178.459 231.395ZM192.025 231.395L193.953 230.863L193.549 229.395H192.025V231.395ZM202.983 264.674L212.012 231.926L208.156 230.863L199.127 263.611L202.983 264.674ZM210.084 233.395H223.65V229.395H210.084V233.395ZM221.755 230.755L205.359 279.361L209.149 280.639L225.545 232.034L221.755 230.755ZM207.254 278H194.855V282H207.254V278ZM196.751 279.361L180.354 230.755L176.564 232.034L192.96 280.639L196.751 279.361ZM178.459 233.395H192.025V229.395H178.459V233.395ZM190.097 231.926L199.127 264.674L202.983 263.611L193.953 230.863L190.097 231.926ZM233.713 274.34L232.313 275.768L232.318 275.773L233.713 274.34ZM229.85 242.535L231.644 243.418L231.647 243.413L229.85 242.535ZM237.846 233.641L238.875 235.356L238.879 235.353L237.846 233.641ZM265.383 236.785L263.901 238.129L263.907 238.135L265.383 236.785ZM271.133 259.92V261.92H273.133V259.92H271.133ZM240.182 259.92V257.92H237.9L238.199 260.182L240.182 259.92ZM243.955 267.557L242.606 269.033L242.616 269.042L243.955 267.557ZM263.721 264.996L265.212 263.664L263.614 261.874L262.141 263.769L263.721 264.996ZM270.1 272.139L271.733 273.293L272.651 271.993L271.591 270.806L270.1 272.139ZM262.193 278.607L263.028 280.425L263.035 280.422L263.042 280.419L262.193 278.607ZM243.371 243.613L241.907 242.25L241.901 242.257L241.895 242.264L243.371 243.613ZM240.316 251.07L238.335 250.795L238.019 253.07H240.316V251.07ZM258.375 251.07V253.07H260.375V251.07H258.375ZM258.375 250.037H260.375V250.016L260.375 249.995L258.375 250.037ZM256.039 243.389L254.584 244.761L254.591 244.768L254.597 244.775L256.039 243.389ZM251.143 278.898C244.459 278.898 239.175 276.865 235.108 272.907L232.318 275.773C237.235 280.559 243.571 282.898 251.143 282.898V278.898ZM235.113 272.911C231.098 268.977 229.02 263.701 229.02 256.865H225.02C225.02 264.584 227.403 270.958 232.313 275.768L235.113 272.911ZM229.02 256.865V255.607H225.02V256.865H229.02ZM229.02 255.607C229.02 250.988 229.911 246.94 231.644 243.418L228.055 241.652C226.015 245.797 225.02 250.463 225.02 255.607H229.02ZM231.647 243.413C233.376 239.871 235.786 237.209 238.875 235.356L236.817 231.926C233.017 234.205 230.096 237.472 228.052 241.657L231.647 243.413ZM238.879 235.353C242.013 233.462 245.602 232.496 249.705 232.496V228.496C244.943 228.496 240.627 229.627 236.812 231.928L238.879 235.353ZM249.705 232.496C255.897 232.496 260.544 234.428 263.901 238.129L266.864 235.441C262.615 230.757 256.81 228.496 249.705 228.496V232.496ZM263.907 238.135C267.299 241.845 269.133 247.242 269.133 254.619H273.133C273.133 246.603 271.133 240.111 266.859 235.436L263.907 238.135ZM269.133 254.619V259.92H273.133V254.619H269.133ZM271.133 257.92H240.182V261.92H271.133V257.92ZM238.199 260.182C238.671 263.76 240.118 266.758 242.606 269.033L245.305 266.081C243.6 264.522 242.53 262.429 242.164 259.658L238.199 260.182ZM242.616 269.042C245.158 271.333 248.336 272.432 251.996 272.432V268.432C249.187 268.432 247.005 267.613 245.294 266.071L242.616 269.042ZM251.996 272.432C257.551 272.432 262.069 270.383 265.3 266.223L262.141 263.769C259.743 266.857 256.444 268.432 251.996 268.432V272.432ZM262.229 266.328L268.608 273.471L271.591 270.806L265.212 263.664L262.229 266.328ZM268.466 270.985C266.737 273.432 264.383 275.373 261.345 276.796L263.042 280.419C266.652 278.727 269.569 276.356 271.733 273.293L268.466 270.985ZM261.358 276.79C258.322 278.185 254.928 278.898 251.143 278.898V282.898C255.443 282.898 259.416 282.085 263.028 280.425L261.358 276.79ZM249.66 239.008C246.582 239.008 243.937 240.07 241.907 242.25L244.835 244.976C246.039 243.683 247.587 243.008 249.66 243.008V239.008ZM241.895 242.264C239.947 244.395 238.819 247.311 238.335 250.795L242.297 251.345C242.712 248.361 243.62 246.305 244.848 244.962L241.895 242.264ZM240.316 253.07H258.375V249.07H240.316V253.07ZM260.375 251.07V250.037H256.375V251.07H260.375ZM260.375 249.995C260.308 246.788 259.429 244.028 257.481 242.002L254.597 244.775C255.644 245.864 256.322 247.536 256.375 250.079L260.375 249.995ZM257.494 242.016C255.525 239.929 252.812 239.008 249.66 239.008V243.008C252.018 243.008 253.559 243.674 254.584 244.761L257.494 242.016ZM290.494 231.395L292.489 231.251L292.355 229.395H290.494V231.395ZM290.898 237.01L288.904 237.153L289.27 242.246L292.46 238.259L290.898 237.01ZM316.369 235.033L317.907 233.754L316.369 235.033ZM320.232 248.6H322.232V248.59L322.232 248.58L320.232 248.6ZM320.232 280V282H322.232V280H320.232ZM307.25 280H305.25V282H307.25V280ZM305.453 242.939L304.005 244.319L304.013 244.327L304.022 244.336L305.453 242.939ZM291.258 245.725L289.533 244.713L289.258 245.181V245.725H291.258ZM291.258 280V282H293.258V280H291.258ZM278.275 280H276.275V282H278.275V280ZM278.275 231.395V229.395H276.275V231.395H278.275ZM288.499 231.538L288.904 237.153L292.893 236.866L292.489 231.251L288.499 231.538ZM292.46 238.259C295.533 234.418 299.602 232.496 304.869 232.496V228.496C298.457 228.496 293.212 230.917 289.337 235.76L292.46 238.259ZM304.869 232.496C309.623 232.496 312.806 233.877 314.831 236.312L317.907 233.754C314.901 230.14 310.417 228.496 304.869 228.496V232.496ZM314.831 236.312C316.932 238.838 318.175 242.828 318.233 248.62L322.232 248.58C322.17 242.332 320.837 237.278 317.907 233.754L314.831 236.312ZM318.232 248.6V280H322.232V248.6H318.232ZM320.232 278H307.25V282H320.232V278ZM309.25 280V248.914H305.25V280H309.25ZM309.25 248.914C309.25 245.94 308.615 243.316 306.885 241.543L304.022 244.336C304.688 245.019 305.25 246.378 305.25 248.914H309.25ZM306.901 241.56C305.151 239.722 302.491 239.053 299.479 239.053V243.053C302.036 243.053 303.359 243.641 304.005 244.319L306.901 241.56ZM299.479 239.053C295.126 239.053 291.724 240.977 289.533 244.713L292.983 246.736C294.446 244.243 296.524 243.053 299.479 243.053V239.053ZM289.258 245.725V280H293.258V245.725H289.258ZM291.258 278H278.275V282H291.258V278ZM280.275 280V231.395H276.275V280H280.275ZM278.275 233.395H290.494V229.395H278.275V233.395ZM65.8398 414H63.8398V416H65.8398V414ZM65.8398 348.594V346.594H63.8398V348.594H65.8398ZM101.373 352.502L100.375 354.235L100.381 354.239L100.388 354.243L101.373 352.502ZM112.02 363.553L110.253 364.491L110.256 364.496L112.02 363.553ZM112.064 399.041L110.298 398.102L110.294 398.111L112.064 399.041ZM86.0996 414L86.0996 416L86.1101 416L86.0996 414ZM79.3164 359.51V357.51H77.3164V359.51H79.3164ZM79.3164 403.174H77.3164V405.174H79.3164V403.174ZM102.182 383.229L104.182 383.247L104.182 383.238V383.229H102.182ZM98.0488 364.676L96.4871 365.925L96.4924 365.932L98.0488 364.676ZM67.8398 414V348.594H63.8398V414H67.8398ZM65.8398 350.594H85.9648V346.594H65.8398V350.594ZM85.9648 350.594C91.401 350.594 96.1863 351.822 100.375 354.235L102.371 350.769C97.5155 347.971 92.0287 346.594 85.9648 346.594V350.594ZM100.388 354.243C104.596 356.623 107.879 360.023 110.253 364.491L113.786 362.614C111.069 357.5 107.254 353.532 102.358 350.761L100.388 354.243ZM110.256 364.496C112.628 368.932 113.838 374.022 113.838 379.814H117.838C117.838 373.448 116.503 367.697 113.783 362.61L110.256 364.496ZM113.838 379.814V382.824H117.838V379.814H113.838ZM113.838 382.824C113.838 388.621 112.641 393.696 110.299 398.102L113.83 399.98C116.519 394.922 117.838 389.187 117.838 382.824H113.838ZM110.294 398.111C107.982 402.512 104.729 405.899 100.514 408.311L102.501 411.783C107.39 408.984 111.176 405.033 113.835 399.971L110.294 398.111ZM100.514 408.311C96.2883 410.73 91.4963 411.972 86.0891 412L86.1101 416C92.143 415.968 97.6231 414.575 102.501 411.783L100.514 408.311ZM86.0996 412H65.8398V416H86.0996V412ZM77.3164 359.51V403.174H81.3164V359.51H77.3164ZM79.3164 405.174H85.8301V401.174H79.3164V405.174ZM85.8301 405.174C91.5772 405.174 96.2308 403.27 99.4692 399.265L96.3589 396.75C94.0271 399.634 90.6246 401.174 85.8301 401.174V405.174ZM99.4692 399.265C102.641 395.344 104.119 389.912 104.182 383.247L100.182 383.21C100.124 389.363 98.7578 393.784 96.3589 396.75L99.4692 399.265ZM104.182 383.229V379.77H100.182V383.229H104.182ZM104.182 379.77C104.182 372.889 102.763 367.332 99.6052 363.42L96.4924 365.932C98.8455 368.848 100.182 373.353 100.182 379.77H104.182ZM99.6106 363.426C96.3982 359.411 91.737 357.51 85.9648 357.51V361.51C90.7943 361.51 94.1891 363.053 96.4871 365.925L99.6106 363.426ZM85.9648 357.51H79.3164V361.51H85.9648V357.51ZM129.764 408.34L128.364 409.768L128.369 409.773L129.764 408.34ZM125.9 376.535L127.695 377.418L127.698 377.413L125.9 376.535ZM133.896 367.641L134.925 369.356L134.93 369.353L133.896 367.641ZM161.434 370.785L159.952 372.129L159.958 372.135L161.434 370.785ZM167.184 393.92V395.92H169.184V393.92H167.184ZM136.232 393.92V391.92H133.951L134.25 394.182L136.232 393.92ZM140.006 401.557L138.656 403.033L138.667 403.042L140.006 401.557ZM159.771 398.996L161.263 397.664L159.664 395.874L158.192 397.769L159.771 398.996ZM166.15 406.139L167.784 407.293L168.702 405.993L167.642 404.806L166.15 406.139ZM158.244 412.607L159.079 414.425L159.086 414.422L159.093 414.419L158.244 412.607ZM139.422 377.613L137.958 376.25L137.952 376.257L137.945 376.264L139.422 377.613ZM136.367 385.07L134.386 384.795L134.07 387.07H136.367V385.07ZM154.426 385.07V387.07H156.426V385.07H154.426ZM154.426 384.037H156.426V384.016L156.425 383.995L154.426 384.037ZM152.09 377.389L150.635 378.761L150.642 378.768L150.648 378.775L152.09 377.389ZM147.193 412.898C140.509 412.898 135.225 410.865 131.159 406.907L128.369 409.773C133.286 414.559 139.622 416.898 147.193 416.898V412.898ZM131.163 406.911C127.149 402.977 125.07 397.701 125.07 390.865H121.07C121.07 398.584 123.454 404.958 128.364 409.768L131.163 406.911ZM125.07 390.865V389.607H121.07V390.865H125.07ZM125.07 389.607C125.07 384.988 125.961 380.94 127.695 377.418L124.106 375.652C122.066 379.797 121.07 384.463 121.07 389.607H125.07ZM127.698 377.413C129.427 373.871 131.837 371.209 134.925 369.356L132.867 365.926C129.068 368.205 126.147 371.472 124.103 375.657L127.698 377.413ZM134.93 369.353C138.063 367.462 141.653 366.496 145.756 366.496V362.496C140.994 362.496 136.677 363.627 132.863 365.928L134.93 369.353ZM145.756 366.496C151.948 366.496 156.595 368.428 159.952 372.129L162.915 369.441C158.666 364.757 152.861 362.496 145.756 362.496V366.496ZM159.958 372.135C163.35 375.845 165.184 381.242 165.184 388.619H169.184C169.184 380.603 167.184 374.111 162.91 369.436L159.958 372.135ZM165.184 388.619V393.92H169.184V388.619H165.184ZM167.184 391.92H136.232V395.92H167.184V391.92ZM134.25 394.182C134.722 397.76 136.168 400.758 138.656 403.033L141.355 400.081C139.651 398.522 138.581 396.429 138.215 393.658L134.25 394.182ZM138.667 403.042C141.209 405.333 144.387 406.432 148.047 406.432V402.432C145.238 402.432 143.056 401.613 141.345 400.071L138.667 403.042ZM148.047 406.432C153.602 406.432 158.119 404.383 161.351 400.223L158.192 397.769C155.793 400.857 152.494 402.432 148.047 402.432V406.432ZM158.28 400.328L164.659 407.471L167.642 404.806L161.263 397.664L158.28 400.328ZM164.517 404.985C162.788 407.432 160.434 409.373 157.396 410.796L159.093 414.419C162.703 412.727 165.62 410.356 167.784 407.293L164.517 404.985ZM157.409 410.79C154.373 412.185 150.979 412.898 147.193 412.898V416.898C151.494 416.898 155.467 416.085 159.079 414.425L157.409 410.79ZM145.711 373.008C142.633 373.008 139.988 374.07 137.958 376.25L140.886 378.976C142.09 377.683 143.638 377.008 145.711 377.008V373.008ZM137.945 376.264C135.998 378.395 134.87 381.311 134.386 384.795L138.348 385.345C138.763 382.361 139.671 380.305 140.898 378.962L137.945 376.264ZM136.367 387.07H154.426V383.07H136.367V387.07ZM156.426 385.07V384.037H152.426V385.07H156.426ZM156.425 383.995C156.359 380.788 155.479 378.028 153.532 376.002L150.648 378.775C151.695 379.864 152.373 381.536 152.426 384.079L156.425 383.995ZM153.545 376.016C151.575 373.929 148.863 373.008 145.711 373.008V377.008C148.069 377.008 149.609 377.674 150.635 378.761L153.545 376.016ZM192.16 398.143L190.232 398.674L192.16 405.667L194.088 398.674L192.16 398.143ZM201.189 365.395V363.395H199.666L199.261 364.863L201.189 365.395ZM214.756 365.395L216.651 366.034L217.541 363.395H214.756V365.395ZM198.359 414V416H199.795L200.254 414.639L198.359 414ZM185.961 414L184.066 414.639L184.525 416H185.961V414ZM169.564 365.395V363.395H166.779L167.669 366.034L169.564 365.395ZM183.131 365.395L185.059 364.863L184.654 363.395H183.131V365.395ZM194.088 398.674L203.118 365.926L199.261 364.863L190.232 397.611L194.088 398.674ZM201.189 367.395H214.756V363.395H201.189V367.395ZM212.861 364.755L196.464 413.361L200.254 414.639L216.651 366.034L212.861 364.755ZM198.359 412H185.961V416H198.359V412ZM187.856 413.361L171.46 364.755L167.669 366.034L184.066 414.639L187.856 413.361ZM169.564 367.395H183.131V363.395H169.564V367.395ZM181.203 365.926L190.232 398.674L194.088 397.611L185.059 364.863L181.203 365.926ZM224.818 408.34L223.419 409.768L223.423 409.773L224.818 408.34ZM220.955 376.535L222.75 377.418L222.752 377.413L220.955 376.535ZM228.951 367.641L229.98 369.356L229.985 369.353L228.951 367.641ZM256.488 370.785L255.007 372.129L255.012 372.135L256.488 370.785ZM262.238 393.92V395.92H264.238V393.92H262.238ZM231.287 393.92V391.92H229.006L229.304 394.182L231.287 393.92ZM235.061 401.557L233.711 403.033L233.721 403.042L235.061 401.557ZM254.826 398.996L256.318 397.664L254.719 395.874L253.247 397.769L254.826 398.996ZM261.205 406.139L262.839 407.293L263.757 405.993L262.697 404.806L261.205 406.139ZM253.299 412.607L254.134 414.425L254.141 414.422L254.147 414.419L253.299 412.607ZM234.477 377.613L233.013 376.25L233.006 376.257L233 376.264L234.477 377.613ZM231.422 385.07L229.441 384.795L229.125 387.07H231.422V385.07ZM249.48 385.07V387.07H251.48V385.07H249.48ZM249.48 384.037H251.48V384.016L251.48 383.995L249.48 384.037ZM247.145 377.389L245.69 378.761L245.696 378.768L245.703 378.775L247.145 377.389ZM242.248 412.898C235.564 412.898 230.28 410.865 226.213 406.907L223.423 409.773C228.341 414.559 234.677 416.898 242.248 416.898V412.898ZM226.218 406.911C222.203 402.977 220.125 397.701 220.125 390.865H216.125C216.125 398.584 218.509 404.958 223.419 409.768L226.218 406.911ZM220.125 390.865V389.607H216.125V390.865H220.125ZM220.125 389.607C220.125 384.988 221.016 380.94 222.75 377.418L219.161 375.652C217.121 379.797 216.125 384.463 216.125 389.607H220.125ZM222.752 377.413C224.482 373.871 226.891 371.209 229.98 369.356L227.922 365.926C224.123 368.205 221.202 371.472 219.158 375.657L222.752 377.413ZM229.985 369.353C233.118 367.462 236.708 366.496 240.811 366.496V362.496C236.049 362.496 231.732 363.627 227.918 365.928L229.985 369.353ZM240.811 366.496C247.003 366.496 251.649 368.428 255.007 372.129L257.97 369.441C253.72 364.757 247.915 362.496 240.811 362.496V366.496ZM255.012 372.135C258.404 375.845 260.238 381.242 260.238 388.619H264.238C264.238 380.603 262.239 374.111 257.964 369.436L255.012 372.135ZM260.238 388.619V393.92H264.238V388.619H260.238ZM262.238 391.92H231.287V395.92H262.238V391.92ZM229.304 394.182C229.777 397.76 231.223 400.758 233.711 403.033L236.41 400.081C234.705 398.522 233.636 396.429 233.27 393.658L229.304 394.182ZM233.721 403.042C236.263 405.333 239.442 406.432 243.102 406.432V402.432C240.293 402.432 238.11 401.613 236.4 400.071L233.721 403.042ZM243.102 406.432C248.657 406.432 253.174 404.383 256.406 400.223L253.247 397.769C250.848 400.857 247.549 402.432 243.102 402.432V406.432ZM253.334 400.328L259.713 407.471L262.697 404.806L256.318 397.664L253.334 400.328ZM259.572 404.985C257.843 407.432 255.489 409.373 252.45 410.796L254.147 414.419C257.757 412.727 260.674 410.356 262.839 407.293L259.572 404.985ZM252.464 410.79C249.428 412.185 246.033 412.898 242.248 412.898V416.898C246.549 416.898 250.521 416.085 254.134 414.425L252.464 410.79ZM240.766 373.008C237.688 373.008 235.043 374.07 233.013 376.25L235.94 378.976C237.145 377.683 238.693 377.008 240.766 377.008V373.008ZM233 376.264C231.053 378.395 229.925 381.311 229.441 384.795L233.403 385.345C233.817 382.361 234.726 380.305 235.953 378.962L233 376.264ZM231.422 387.07H249.48V383.07H231.422V387.07ZM251.48 385.07V384.037H247.48V385.07H251.48ZM251.48 383.995C251.413 380.788 250.534 378.028 248.586 376.002L245.703 378.775C246.75 379.864 247.428 381.536 247.481 384.079L251.48 383.995ZM248.599 376.016C246.63 373.929 243.918 373.008 240.766 373.008V377.008C243.124 377.008 244.664 377.674 245.69 378.761L248.599 376.016ZM283.352 414V416H285.352V414H283.352ZM270.324 414H268.324V416H270.324V414ZM270.324 345V343H268.324V345H270.324ZM283.352 345H285.352V343H283.352V345ZM283.352 412H270.324V416H283.352V412ZM272.324 414V345H268.324V414H272.324ZM270.324 347H283.352V343H270.324V347ZM281.352 345V414H285.352V345H281.352ZM294.852 376.355L293.057 375.472L294.852 376.355ZM302.848 367.596L301.832 365.873L301.825 365.877L302.848 367.596ZM331.059 370.516L329.665 371.95L329.671 371.955L331.059 370.516ZM338.021 386.867L340.021 386.813L340.02 386.771L340.017 386.728L338.021 386.867ZM338.111 390.191H340.111V390.164L340.111 390.137L338.111 390.191ZM331.867 408.16L333.334 409.52L333.339 409.515L331.867 408.16ZM298.311 408.16L296.844 409.52L296.848 409.525L298.311 408.16ZM307.654 400.793L306.021 401.948L306.028 401.957L307.654 400.793ZM322.479 400.838L324.088 402.025L324.095 402.015L322.479 400.838ZM307.654 378.736L309.287 379.891L309.294 379.882L307.654 378.736ZM294.066 389.248C294.066 384.688 294.943 380.7 296.646 377.238L293.057 375.472C291.047 379.558 290.066 384.165 290.066 389.248H294.066ZM296.646 377.238C298.339 373.798 300.743 371.175 303.87 369.315L301.825 365.877C298.004 368.149 295.078 371.366 293.057 375.472L296.646 377.238ZM303.864 369.318C307.02 367.457 310.718 366.496 315.021 366.496V362.496C310.101 362.496 305.683 363.602 301.832 365.873L303.864 369.318ZM315.021 366.496C321.138 366.496 325.958 368.351 329.665 371.95L332.452 369.081C327.893 364.654 322.022 362.496 315.021 362.496V366.496ZM329.671 371.955C333.41 375.56 335.574 380.511 336.026 387.006L340.017 386.728C339.51 379.448 337.033 373.497 332.447 369.076L329.671 371.955ZM336.022 386.921L336.112 390.245L340.111 390.137L340.021 386.813L336.022 386.921ZM336.111 390.191C336.111 397.259 334.149 402.728 330.396 406.806L333.339 409.515C337.911 404.548 340.111 398.038 340.111 390.191H336.111ZM330.4 406.801C326.672 410.824 321.651 412.898 315.111 412.898V416.898C322.588 416.898 328.737 414.481 333.334 409.52L330.4 406.801ZM315.111 412.898C308.572 412.898 303.532 410.824 299.773 406.796L296.848 409.525C301.474 414.481 307.635 416.898 315.111 416.898V412.898ZM299.778 406.801C296.041 402.768 294.066 397.192 294.066 389.832H290.066C290.066 397.925 292.255 404.568 296.844 409.52L299.778 406.801ZM294.066 389.832V389.248H290.066V389.832H294.066ZM303.049 390.191C303.049 395.011 303.949 399.018 306.021 401.948L309.287 399.638C307.886 397.657 307.049 394.596 307.049 390.191H303.049ZM306.028 401.957C308.176 404.957 311.295 406.432 315.111 406.432V402.432C312.459 402.432 310.606 401.48 309.28 399.629L306.028 401.957ZM315.111 406.432C318.849 406.432 321.92 404.965 324.088 402.025L320.869 399.651C319.503 401.503 317.663 402.432 315.111 402.432V406.432ZM324.095 402.015C326.239 399.072 327.129 394.685 327.129 389.248H323.129C323.129 394.412 322.252 397.752 320.862 399.66L324.095 402.015ZM327.129 389.248C327.129 384.501 326.207 380.529 324.109 377.578L320.848 379.895C322.284 381.915 323.129 384.951 323.129 389.248H327.129ZM324.109 377.578C321.945 374.533 318.835 373.008 315.021 373.008V377.008C317.617 377.008 319.479 377.968 320.848 379.895L324.109 377.578ZM315.021 373.008C311.23 373.008 308.146 374.541 306.015 377.591L309.294 379.882C310.636 377.961 312.464 377.008 315.021 377.008V373.008ZM306.021 377.581C303.928 380.541 303.049 384.863 303.049 390.191H307.049C307.049 385.158 307.907 381.843 309.287 379.891L306.021 377.581ZM384.74 408.16L383.144 406.955L383.143 406.957L384.74 408.16ZM359.09 409.777L360.587 408.451L357.09 404.504V409.777H359.09ZM359.09 432.688V434.688H361.09V432.688H359.09ZM346.107 432.688H344.107V434.688H346.107V432.688ZM346.107 365.395V363.395H344.107V365.395H346.107ZM358.146 365.395L360.138 365.207L359.967 363.395H358.146V365.395ZM358.596 370.156L356.605 370.344L357.056 375.128L360.132 371.437L358.596 370.156ZM384.875 371.145L383.275 372.345L384.875 371.145ZM374.453 378.736L372.773 379.822L372.778 379.829L372.783 379.836L374.453 378.736ZM359.09 379.725L357.294 378.844L357.09 379.261V379.725H359.09ZM359.09 399.625H357.09V400.093L357.298 400.513L359.09 399.625ZM387.861 390.146C387.861 397.338 386.223 402.877 383.144 406.955L386.336 409.365C390.086 404.399 391.861 397.929 391.861 390.146H387.861ZM383.143 406.957C380.149 410.931 376.167 412.898 370.994 412.898V416.898C377.382 416.898 382.564 414.373 386.338 409.364L383.143 406.957ZM370.994 412.898C366.606 412.898 363.2 411.401 360.587 408.451L357.593 411.104C361.029 414.982 365.56 416.898 370.994 416.898V412.898ZM357.09 409.777V432.688H361.09V409.777H357.09ZM359.09 430.688H346.107V434.688H359.09V430.688ZM348.107 432.688V365.395H344.107V432.688H348.107ZM346.107 367.395H358.146V363.395H346.107V367.395ZM356.155 365.582L356.605 370.344L360.587 369.968L360.138 365.207L356.155 365.582ZM360.132 371.437C362.884 368.135 366.416 366.496 370.904 366.496V362.496C365.27 362.496 360.597 364.631 357.059 368.876L360.132 371.437ZM370.904 366.496C376.324 366.496 380.363 368.461 383.275 372.345L386.475 369.945C382.739 364.963 377.464 362.496 370.904 362.496V366.496ZM383.275 372.345C386.253 376.315 387.861 381.948 387.861 389.473H391.861C391.861 381.424 390.145 374.839 386.475 369.945L383.275 372.345ZM387.861 389.473V390.146H391.861V389.473H387.861ZM378.879 389.203C378.879 384.485 378.042 380.55 376.123 377.636L372.783 379.836C374.098 381.834 374.879 384.877 374.879 389.203H378.879ZM376.133 377.651C374.158 374.595 371.187 373.053 367.49 373.053V377.053C369.903 377.053 371.574 377.966 372.773 379.822L376.133 377.651ZM367.49 373.053C365.204 373.053 363.131 373.49 361.363 374.473C359.577 375.466 358.222 376.952 357.294 378.844L360.886 380.605C361.485 379.382 362.294 378.532 363.308 377.969C364.34 377.394 365.704 377.053 367.49 377.053V373.053ZM357.09 379.725V399.625H361.09V379.725H357.09ZM357.298 400.513C358.25 402.436 359.62 403.953 361.418 404.97C363.2 405.98 365.284 406.432 367.58 406.432V402.432C365.803 402.432 364.436 402.083 363.388 401.49C362.356 400.905 361.517 400.018 360.882 398.737L357.298 400.513ZM367.58 406.432C371.341 406.432 374.33 404.83 376.261 401.667C378.095 398.664 378.879 394.418 378.879 389.203H374.879C374.879 394.141 374.113 397.509 372.847 399.582C371.679 401.495 370.019 402.432 367.58 402.432V406.432ZM410.121 365.395L412.116 365.246L411.978 363.395H410.121V365.395ZM410.525 370.83L408.531 370.978L408.903 375.983L412.075 372.094L410.525 370.83ZM437.389 371.908L435.581 372.763L437.063 375.898L439.034 373.045L437.389 371.908ZM463.758 369.123L462.223 370.405L462.229 370.412L463.758 369.123ZM467.621 414V416H469.621V414H467.621ZM454.594 414H452.594V416H454.594V414ZM452.977 376.984L451.443 378.268L451.45 378.277L451.458 378.286L452.977 376.984ZM439.186 380.623L437.331 379.875L437.185 380.236L437.186 380.626L439.186 380.623ZM439.23 414V416H441.233L441.23 413.997L439.23 414ZM426.248 414H424.248V416H426.248V414ZM410.93 379.635L409.169 378.686L408.93 379.13V379.635H410.93ZM410.93 414V416H412.93V414H410.93ZM397.947 414H395.947V416H397.947V414ZM397.947 365.395V363.395H395.947V365.395H397.947ZM408.127 365.543L408.531 370.978L412.52 370.682L412.116 365.246L408.127 365.543ZM412.075 372.094C415.107 368.377 419.174 366.496 424.496 366.496V362.496C418.078 362.496 412.832 364.838 408.976 369.566L412.075 372.094ZM424.496 366.496C427.366 366.496 429.641 367.062 431.417 368.083C433.176 369.094 434.568 370.622 435.581 372.763L439.197 371.053C437.873 368.253 435.949 366.075 433.41 364.615C430.889 363.165 427.885 362.496 424.496 362.496V366.496ZM439.034 373.045C442.052 368.677 446.286 366.496 451.988 366.496V362.496C445.053 362.496 439.553 365.257 435.743 370.771L439.034 373.045ZM451.988 366.496C456.864 366.496 460.138 367.908 462.223 370.405L465.293 367.841C462.227 364.169 457.654 362.496 451.988 362.496V366.496ZM462.229 370.412C464.373 372.955 465.621 377.017 465.621 382.959H469.621C469.621 376.563 468.294 371.4 465.287 367.834L462.229 370.412ZM465.621 382.959V414H469.621V382.959H465.621ZM467.621 412H454.594V416H467.621V412ZM456.594 414V383.004H452.594V414H456.594ZM456.594 383.004C456.594 380.064 456.033 377.477 454.495 375.683L451.458 378.286C452.077 379.008 452.594 380.433 452.594 383.004H456.594ZM454.51 375.701C452.868 373.74 450.226 373.053 447.271 373.053V377.053C449.767 377.053 450.928 377.654 451.443 378.268L454.51 375.701ZM447.271 373.053C444.998 373.053 442.936 373.599 441.195 374.798C439.459 375.995 438.193 377.736 437.331 379.875L441.04 381.371C441.675 379.796 442.506 378.753 443.465 378.092C444.419 377.435 445.652 377.053 447.271 377.053V373.053ZM437.186 380.626L437.23 414.003L441.23 413.997L441.186 380.62L437.186 380.626ZM439.23 412H426.248V416H439.23V412ZM428.248 414V383.049H424.248V414H428.248ZM428.248 383.049C428.248 380.053 427.673 377.419 426.087 375.617L423.085 378.262C423.715 378.976 424.248 380.414 424.248 383.049H428.248ZM426.087 375.617C424.423 373.729 421.832 373.053 418.926 373.053V377.053C421.35 377.053 422.532 377.634 423.085 378.262L426.087 375.617ZM418.926 373.053C416.805 373.053 414.86 373.494 413.17 374.463C411.473 375.435 410.146 376.874 409.169 378.686L412.69 380.584C413.36 379.341 414.19 378.489 415.158 377.934C416.133 377.375 417.363 377.053 418.926 377.053V373.053ZM408.93 379.635V414H412.93V379.635H408.93ZM410.93 412H397.947V416H410.93V412ZM399.947 414V365.395H395.947V414H399.947ZM397.947 367.395H410.121V363.395H397.947V367.395ZM482.58 408.34L481.18 409.768L481.185 409.773L482.58 408.34ZM478.717 376.535L480.511 377.418L480.514 377.413L478.717 376.535ZM486.713 367.641L487.742 369.356L487.746 369.353L486.713 367.641ZM514.25 370.785L512.769 372.129L512.774 372.135L514.25 370.785ZM520 393.92V395.92H522V393.92H520ZM489.049 393.92V391.92H486.767L487.066 394.182L489.049 393.92ZM492.822 401.557L491.473 403.033L491.483 403.042L492.822 401.557ZM512.588 398.996L514.08 397.664L512.481 395.874L511.008 397.769L512.588 398.996ZM518.967 406.139L520.6 407.293L521.518 405.993L520.459 404.806L518.967 406.139ZM511.061 412.607L511.896 414.425L511.902 414.422L511.909 414.419L511.061 412.607ZM492.238 377.613L490.774 376.25L490.768 376.257L490.762 376.264L492.238 377.613ZM489.184 385.07L487.203 384.795L486.887 387.07H489.184V385.07ZM507.242 385.07V387.07H509.242V385.07H507.242ZM507.242 384.037H509.242V384.016L509.242 383.995L507.242 384.037ZM504.906 377.389L503.451 378.761L503.458 378.768L503.465 378.775L504.906 377.389ZM500.01 412.898C493.326 412.898 488.042 410.865 483.975 406.907L481.185 409.773C486.103 414.559 492.438 416.898 500.01 416.898V412.898ZM483.98 406.911C479.965 402.977 477.887 397.701 477.887 390.865H473.887C473.887 398.584 476.271 404.958 481.18 409.768L483.98 406.911ZM477.887 390.865V389.607H473.887V390.865H477.887ZM477.887 389.607C477.887 384.988 478.778 380.94 480.511 377.418L476.922 375.652C474.882 379.797 473.887 384.463 473.887 389.607H477.887ZM480.514 377.413C482.243 373.871 484.653 371.209 487.742 369.356L485.684 365.926C481.885 368.205 478.964 371.472 476.92 375.657L480.514 377.413ZM487.746 369.353C490.88 367.462 494.469 366.496 498.572 366.496V362.496C493.811 362.496 489.494 363.627 485.68 365.928L487.746 369.353ZM498.572 366.496C504.764 366.496 509.411 368.428 512.769 372.129L515.731 369.441C511.482 364.757 505.677 362.496 498.572 362.496V366.496ZM512.774 372.135C516.166 375.845 518 381.242 518 388.619H522C522 380.603 520.001 374.111 515.726 369.436L512.774 372.135ZM518 388.619V393.92H522V388.619H518ZM520 391.92H489.049V395.92H520V391.92ZM487.066 394.182C487.539 397.76 488.985 400.758 491.473 403.033L494.172 400.081C492.467 398.522 491.398 396.429 491.032 393.658L487.066 394.182ZM491.483 403.042C494.025 405.333 497.203 406.432 500.863 406.432V402.432C498.055 402.432 495.872 401.613 494.161 400.071L491.483 403.042ZM500.863 406.432C506.418 406.432 510.936 404.383 514.167 400.223L511.008 397.769C508.61 400.857 505.311 402.432 500.863 402.432V406.432ZM511.096 400.328L517.475 407.471L520.459 404.806L514.08 397.664L511.096 400.328ZM517.333 404.985C515.604 407.432 513.251 409.373 510.212 410.796L511.909 414.419C515.519 412.727 518.436 410.356 520.6 407.293L517.333 404.985ZM510.226 410.79C507.19 412.185 503.795 412.898 500.01 412.898V416.898C504.31 416.898 508.283 416.085 511.896 414.425L510.226 410.79ZM498.527 373.008C495.449 373.008 492.805 374.07 490.774 376.25L493.702 378.976C494.906 377.683 496.454 377.008 498.527 377.008V373.008ZM490.762 376.264C488.814 378.395 487.687 381.311 487.203 384.795L491.165 385.345C491.579 382.361 492.488 380.305 493.715 378.962L490.762 376.264ZM489.184 387.07H507.242V383.07H489.184V387.07ZM509.242 385.07V384.037H505.242V385.07H509.242ZM509.242 383.995C509.175 380.788 508.296 378.028 506.348 376.002L503.465 378.775C504.512 379.864 505.19 381.536 505.243 384.079L509.242 383.995ZM506.361 376.016C504.392 373.929 501.68 373.008 498.527 373.008V377.008C500.886 377.008 502.426 377.674 503.451 378.761L506.361 376.016ZM539.361 365.395L541.356 365.251L541.223 363.395H539.361V365.395ZM539.766 371.01L537.771 371.153L538.137 376.246L541.327 372.259L539.766 371.01ZM565.236 369.033L566.774 367.754L565.236 369.033ZM569.1 382.6H571.1V382.59L571.1 382.58L569.1 382.6ZM569.1 414V416H571.1V414H569.1ZM556.117 414H554.117V416H556.117V414ZM554.32 376.939L552.872 378.319L552.88 378.327L552.889 378.336L554.32 376.939ZM540.125 379.725L538.4 378.713L538.125 379.181V379.725H540.125ZM540.125 414V416H542.125V414H540.125ZM527.143 414H525.143V416H527.143V414ZM527.143 365.395V363.395H525.143V365.395H527.143ZM537.366 365.538L537.771 371.153L541.76 370.866L541.356 365.251L537.366 365.538ZM541.327 372.259C544.4 368.418 548.469 366.496 553.736 366.496V362.496C547.324 362.496 542.079 364.917 538.204 369.76L541.327 372.259ZM553.736 366.496C558.49 366.496 561.673 367.877 563.699 370.312L566.774 367.754C563.768 364.14 559.285 362.496 553.736 362.496V366.496ZM563.699 370.312C565.799 372.838 567.042 376.828 567.1 382.62L571.1 382.58C571.037 376.332 569.705 371.278 566.774 367.754L563.699 370.312ZM567.1 382.6V414H571.1V382.6H567.1ZM569.1 412H556.117V416H569.1V412ZM558.117 414V382.914H554.117V414H558.117ZM558.117 382.914C558.117 379.94 557.482 377.316 555.752 375.543L552.889 378.336C553.555 379.019 554.117 380.378 554.117 382.914H558.117ZM555.769 375.56C554.018 373.722 551.358 373.053 548.346 373.053V377.053C550.903 377.053 552.227 377.641 552.872 378.319L555.769 375.56ZM548.346 373.053C543.993 373.053 540.591 374.977 538.4 378.713L541.85 380.736C543.313 378.243 545.391 377.053 548.346 377.053V373.053ZM538.125 379.725V414H542.125V379.725H538.125ZM540.125 412H527.143V416H540.125V412ZM529.143 414V365.395H525.143V414H529.143ZM527.143 367.395H539.361V363.395H527.143V367.395ZM594.525 353.445H596.525V351.445H594.525V353.445ZM594.525 365.395H592.525V367.395H594.525V365.395ZM602.836 365.395H604.836V363.395H602.836V365.395ZM602.836 374.918V376.918H604.836V374.918H602.836ZM594.525 374.918V372.918H592.525V374.918H594.525ZM595.559 403.039L597.057 401.714L595.559 403.039ZM603.33 403.893H605.33V401.479L602.958 401.927L603.33 403.893ZM603.33 413.73L603.915 415.643L605.33 415.21V413.73H603.33ZM581.543 401.107H579.543V401.127L579.543 401.147L581.543 401.107ZM581.543 374.918H583.543V372.918H581.543V374.918ZM574.445 374.918H572.445V376.918H574.445V374.918ZM574.445 365.395V363.395H572.445V365.395H574.445ZM581.543 365.395V367.395H583.543V365.395H581.543ZM581.543 353.445V351.445H579.543V353.445H581.543ZM592.525 353.445V365.395H596.525V353.445H592.525ZM594.525 367.395H602.836V363.395H594.525V367.395ZM600.836 365.395V374.918H604.836V365.395H600.836ZM602.836 372.918H594.525V376.918H602.836V372.918ZM592.525 374.918V399.176H596.525V374.918H592.525ZM592.525 399.176C592.525 401.136 592.884 403.034 594.061 404.364L597.057 401.714C596.856 401.487 596.525 400.81 596.525 399.176H592.525ZM594.061 404.364C595.352 405.824 597.449 406.207 599.512 406.207V402.207C597.682 402.207 597.143 401.811 597.057 401.714L594.061 404.364ZM599.512 406.207C601.042 406.207 602.443 406.096 603.702 405.858L602.958 401.927C602.001 402.109 600.857 402.207 599.512 402.207V406.207ZM601.33 403.893V413.73H605.33V403.893H601.33ZM602.745 411.818C600.391 412.538 597.968 412.898 595.469 412.898V416.898C598.36 416.898 601.178 416.48 603.915 415.643L602.745 411.818ZM595.469 412.898C591.233 412.898 588.386 411.832 586.567 410.03C584.743 408.224 583.626 405.359 583.543 401.068L579.543 401.147C579.639 406.05 580.933 410.08 583.752 412.872C586.574 415.667 590.6 416.898 595.469 416.898V412.898ZM583.543 401.107V374.918H579.543V401.107H583.543ZM581.543 372.918H574.445V376.918H581.543V372.918ZM576.445 374.918V365.395H572.445V374.918H576.445ZM574.445 367.395H581.543V363.395H574.445V367.395ZM583.543 365.395V353.445H579.543V365.395H583.543ZM581.543 355.445H594.525V351.445H581.543V355.445Z" fill="#C29653"/>
<path d="M483.542 265.75C480.733 265.75 478.45 263.493 478.45 260.706V71.2945C478.45 68.5072 480.739 66.25 483.542 66.25H543.586C543.427 67.2076 543.35 68.1538 543.35 69.1C543.35 80.101 552.613 89.05 564 89.05C575.387 89.05 584.65 80.101 584.65 69.1C584.65 68.1538 584.573 67.2076 584.414 66.25H644.458C647.267 66.25 649.55 68.5072 649.55 71.2945V260.706C649.55 263.487 647.261 265.75 644.458 265.75H483.542V265.75Z" fill="#F5C276"/>
<path d="M644.452 69.1C645.638 69.1 646.6 70.0861 646.6 71.2945V260.711C646.6 261.914 645.638 262.9 644.452 262.9H483.548C482.362 262.9 481.4 261.914 481.4 260.705V71.2945C481.4 70.0861 482.362 69.1 483.548 69.1H540.4C540.4 81.6742 550.985 91.9 564 91.9C577.015 91.9 587.6 81.6742 587.6 69.1H644.452ZM644.452 63.4H580.614C581.275 65.1898 581.7 67.0879 581.7 69.1C581.7 78.5449 573.776 86.2 564 86.2C554.224 86.2 546.3 78.5449 546.3 69.1C546.3 67.0879 546.725 65.1898 547.386 63.4H483.548C479.105 63.4 475.5 66.934 475.5 71.2945V260.711C475.5 265.066 479.105 268.6 483.548 268.6H644.458C648.895 268.6 652.5 265.066 652.5 260.705V71.2945C652.5 66.934 648.895 63.4 644.452 63.4Z" fill="#C29653"/>
<path d="M628.9 86.2H499.1V245.8H628.9V86.2Z" fill="white"/>
<path d="M577.505 63.4C578.833 66.3355 579.21 69.7612 578.089 73.3579C576.632 78.0262 572.561 81.7882 567.652 82.9282C557.923 85.1797 549.25 78.1174 549.25 69.1C549.25 67.0708 549.704 65.1499 550.495 63.4H522.7V86.2C522.7 92.4985 527.98 97.6 534.5 97.6H593.5C600.019 97.6 605.3 92.4985 605.3 86.2V63.4H577.505Z" fill="#66798F"/>
<path d="M564 57.7C570.508 57.7 575.8 62.8129 575.8 69.1C575.8 75.3871 570.508 80.5 564 80.5C557.492 80.5 552.2 75.3871 552.2 69.1C552.2 62.8129 557.492 57.7 564 57.7ZM564 52C554.224 52 546.3 59.6551 546.3 69.1C546.3 78.5449 554.224 86.2 564 86.2C573.776 86.2 581.7 78.5449 581.7 69.1C581.7 59.6551 573.776 52 564 52Z" fill="#66798F"/>
<path d="M564 194.5H516.8V200.2H564V194.5Z" fill="#788B9C"/>
<path d="M564 143.2H516.8V148.9H564V143.2Z" fill="#788B9C"/>
<path d="M578.012 145.337L589.812 156.737L614.887 133.938" stroke="#5E9C76" stroke-miterlimit="10"/>
<path d="M578.012 196.637L589.812 208.037L614.887 185.238" stroke="#5E9C76" stroke-miterlimit="10"/>
</svg>
